<?xml version="1.0" encoding="UTF-8" standalone="no"?>
<!DOCTYPE svg PUBLIC "-//W3C//DTD SVG 1.1//EN"
 "http://www.w3.org/Graphics/SVG/1.1/DTD/svg11.dtd">
<!-- Generated by graphviz version 2.47.0 (20210316.0004)
 -->
<!-- Title: dependencies Pages: 1 -->
<svg width="504pt" height="211pt"
 viewBox="0.00 0.00 504.00 211.00" xmlns="http://www.w3.org/2000/svg" xmlns:xlink="http://www.w3.org/1999/xlink">
<g id="graph0" class="graph" transform="scale(1 1) rotate(0) translate(4 207)">
<title>dependencies</title>
<polygon fill="white" stroke="transparent" points="-4,4 -4,-207 500,-207 500,4 -4,4"/>
<text text-anchor="start" x="227.01" y="-42.4" font-family="Times-12" font-weight="bold" font-size="14.00">Legend</text>
<polygon fill="#ffffb3" stroke="transparent" points="14,-10 14,-30 34,-30 34,-10 14,-10"/>
<text text-anchor="start" x="37.63" y="-15.4" font-family="Times-12" font-size="14.00"> &#160;Declarations</text>
<polygon fill="#8dd3c7" stroke="transparent" points="127,-10 127,-30 147,-30 147,-10 127,-10"/>
<text text-anchor="start" x="150.73" y="-15.4" font-family="Times-12" font-size="14.00"> &#160;Module</text>
<polygon fill="#80b1d3" stroke="transparent" points="213,-10 213,-30 233,-30 233,-10 213,-10"/>
<text text-anchor="start" x="236.78" y="-15.4" font-family="Times-12" font-size="14.00"> &#160;Bootstrap</text>
<polygon fill="#fdb462" stroke="transparent" points="310,-10 310,-30 330,-30 330,-10 310,-10"/>
<text text-anchor="start" x="333.67" y="-15.4" font-family="Times-12" font-size="14.00"> &#160;Providers</text>
<polygon fill="#fb8072" stroke="transparent" points="406,-10 406,-30 426,-30 426,-10 406,-10"/>
<text text-anchor="start" x="429.73" y="-15.4" font-family="Times-12" font-size="14.00"> &#160;Exports</text>
<g id="clust1" class="cluster">
<title>cluster_Admin</title>
<polygon fill="none" stroke="black" stroke-dasharray="1,5" points="104,-70 104,-195 392,-195 392,-70 104,-70"/>
</g>
<g id="clust6" class="cluster">
<title>cluster_Admin_providers</title>
<polygon fill="none" stroke="black" points="112,-78 112,-130 384,-130 384,-78 112,-78"/>
</g>
<!-- AdminService -->
<g id="node1" class="node">
<title>AdminService</title>
<ellipse fill="#fdb462" stroke="black" cx="309" cy="-104" rx="66.63" ry="18"/>
<text text-anchor="middle" x="309" y="-99.8" font-family="Times,serif" font-size="14.00">AdminService</text>
</g>
<!-- Admin -->
<g id="node3" class="node">
<title>Admin</title>
<polygon fill="#8dd3c7" stroke="black" points="267.39,-187 264.39,-191 243.39,-191 240.39,-187 212.61,-187 212.61,-151 267.39,-151 267.39,-187"/>
<text text-anchor="middle" x="240" y="-164.8" font-family="Times,serif" font-size="14.00">Admin</text>
</g>
<!-- AdminService&#45;&gt;Admin -->
<g id="edge1" class="edge">
<title>AdminService&#45;&gt;Admin</title>
<path fill="none" stroke="black" d="M254.81,-114.73C254.81,-114.73 254.81,-140.87 254.81,-140.87"/>
<polygon fill="black" stroke="black" points="251.31,-140.87 254.81,-150.87 258.31,-140.87 251.31,-140.87"/>
</g>
<!-- DbService -->
<g id="node2" class="node">
<title>DbService</title>
<ellipse fill="#fdb462" stroke="black" cx="172" cy="-104" rx="51.58" ry="18"/>
<text text-anchor="middle" x="172" y="-99.8" font-family="Times,serif" font-size="14.00">DbService</text>
</g>
<!-- DbService&#45;&gt;Admin -->
<g id="edge2" class="edge">
<title>DbService&#45;&gt;Admin</title>
<path fill="none" stroke="black" d="M218.17,-112.23C218.17,-112.23 218.17,-140.76 218.17,-140.76"/>
<polygon fill="black" stroke="black" points="214.67,-140.76 218.17,-150.76 221.67,-140.76 214.67,-140.76"/>
</g>
</g>
</svg>
