<?xml version="1.0" encoding="UTF-8" standalone="no"?>
<!DOCTYPE svg PUBLIC "-//W3C//DTD SVG 1.1//EN"
 "http://www.w3.org/Graphics/SVG/1.1/DTD/svg11.dtd">
<!-- Generated by graphviz version 2.47.0 (20210316.0004)
 -->
<!-- Title: dependencies Pages: 1 -->
<svg width="504pt" height="211pt"
 viewBox="0.00 0.00 504.00 211.00" xmlns="http://www.w3.org/2000/svg" xmlns:xlink="http://www.w3.org/1999/xlink">
<g id="graph0" class="graph" transform="scale(1 1) rotate(0) translate(4 207)">
<title>dependencies</title>
<polygon fill="white" stroke="transparent" points="-4,4 -4,-207 500,-207 500,4 -4,4"/>
<text text-anchor="start" x="227.01" y="-42.4" font-family="Times-12" font-weight="bold" font-size="14.00">Legend</text>
<polygon fill="#ffffb3" stroke="transparent" points="14,-10 14,-30 34,-30 34,-10 14,-10"/>
<text text-anchor="start" x="37.63" y="-15.4" font-family="Times-12" font-size="14.00"> &#160;Declarations</text>
<polygon fill="#8dd3c7" stroke="transparent" points="127,-10 127,-30 147,-30 147,-10 127,-10"/>
<text text-anchor="start" x="150.73" y="-15.4" font-family="Times-12" font-size="14.00"> &#160;Module</text>
<polygon fill="#80b1d3" stroke="transparent" points="213,-10 213,-30 233,-30 233,-10 213,-10"/>
<text text-anchor="start" x="236.78" y="-15.4" font-family="Times-12" font-size="14.00"> &#160;Bootstrap</text>
<polygon fill="#fdb462" stroke="transparent" points="310,-10 310,-30 330,-30 330,-10 310,-10"/>
<text text-anchor="start" x="333.67" y="-15.4" font-family="Times-12" font-size="14.00"> &#160;Providers</text>
<polygon fill="#fb8072" stroke="transparent" points="406,-10 406,-30 426,-30 426,-10 406,-10"/>
<text text-anchor="start" x="429.73" y="-15.4" font-family="Times-12" font-size="14.00"> &#160;Exports</text>
<g id="clust1" class="cluster">
<title>cluster_AppointmentModule</title>
<polygon fill="none" stroke="black" stroke-dasharray="1,5" points="80,-70 80,-195 416,-195 416,-70 80,-70"/>
</g>
<g id="clust6" class="cluster">
<title>cluster_AppointmentModule_providers</title>
<polygon fill="none" stroke="black" points="88,-78 88,-130 408,-130 408,-78 88,-78"/>
</g>
<!-- AppointmentService -->
<g id="node1" class="node">
<title>AppointmentService</title>
<ellipse fill="#fdb462" stroke="black" cx="309" cy="-104" rx="90.91" ry="18"/>
<text text-anchor="middle" x="309" y="-99.8" font-family="Times,serif" font-size="14.00">AppointmentService</text>
</g>
<!-- AppointmentModule -->
<g id="node3" class="node">
<title>AppointmentModule</title>
<polygon fill="#8dd3c7" stroke="black" points="298.93,-187 295.93,-191 274.93,-191 271.93,-187 165.07,-187 165.07,-151 298.93,-151 298.93,-187"/>
<text text-anchor="middle" x="232" y="-164.8" font-family="Times,serif" font-size="14.00">AppointmentModule</text>
</g>
<!-- AppointmentService&#45;&gt;AppointmentModule -->
<g id="edge1" class="edge">
<title>AppointmentService&#45;&gt;AppointmentModule</title>
<path fill="none" stroke="black" d="M258.38,-119.08C258.38,-119.08 258.38,-140.76 258.38,-140.76"/>
<polygon fill="black" stroke="black" points="254.88,-140.76 258.38,-150.76 261.88,-140.76 254.88,-140.76"/>
</g>
<!-- DbService -->
<g id="node2" class="node">
<title>DbService</title>
<ellipse fill="#fdb462" stroke="black" cx="148" cy="-104" rx="51.58" ry="18"/>
<text text-anchor="middle" x="148" y="-99.8" font-family="Times,serif" font-size="14.00">DbService</text>
</g>
<!-- DbService&#45;&gt;AppointmentModule -->
<g id="edge2" class="edge">
<title>DbService&#45;&gt;AppointmentModule</title>
<path fill="none" stroke="black" d="M182.54,-117.47C182.54,-117.47 182.54,-140.86 182.54,-140.86"/>
<polygon fill="black" stroke="black" points="179.04,-140.86 182.54,-150.86 186.04,-140.86 179.04,-140.86"/>
</g>
</g>
</svg>
