<?xml version="1.0" encoding="UTF-8" standalone="no"?>
<!DOCTYPE svg PUBLIC "-//W3C//DTD SVG 1.1//EN"
 "http://www.w3.org/Graphics/SVG/1.1/DTD/svg11.dtd">
<!-- Generated by graphviz version 2.47.0 (20210316.0004)
 -->
<!-- Title: dependencies Pages: 1 -->
<svg width="893pt" height="211pt"
 viewBox="0.00 0.00 893.00 211.00" xmlns="http://www.w3.org/2000/svg" xmlns:xlink="http://www.w3.org/1999/xlink">
<g id="graph0" class="graph" transform="scale(1 1) rotate(0) translate(4 207)">
<title>dependencies</title>
<polygon fill="white" stroke="transparent" points="-4,4 -4,-207 889,-207 889,4 -4,4"/>
<text text-anchor="start" x="421.51" y="-42.4" font-family="Times-12" font-weight="bold" font-size="14.00">Legend</text>
<polygon fill="#ffffb3" stroke="transparent" points="208.5,-10 208.5,-30 228.5,-30 228.5,-10 208.5,-10"/>
<text text-anchor="start" x="232.13" y="-15.4" font-family="Times-12" font-size="14.00"> &#160;Declarations</text>
<polygon fill="#8dd3c7" stroke="transparent" points="321.5,-10 321.5,-30 341.5,-30 341.5,-10 321.5,-10"/>
<text text-anchor="start" x="345.23" y="-15.4" font-family="Times-12" font-size="14.00"> &#160;Module</text>
<polygon fill="#80b1d3" stroke="transparent" points="407.5,-10 407.5,-30 427.5,-30 427.5,-10 407.5,-10"/>
<text text-anchor="start" x="431.28" y="-15.4" font-family="Times-12" font-size="14.00"> &#160;Bootstrap</text>
<polygon fill="#fdb462" stroke="transparent" points="504.5,-10 504.5,-30 524.5,-30 524.5,-10 504.5,-10"/>
<text text-anchor="start" x="528.17" y="-15.4" font-family="Times-12" font-size="14.00"> &#160;Providers</text>
<polygon fill="#fb8072" stroke="transparent" points="600.5,-10 600.5,-30 620.5,-30 620.5,-10 600.5,-10"/>
<text text-anchor="start" x="624.23" y="-15.4" font-family="Times-12" font-size="14.00"> &#160;Exports</text>
<g id="clust1" class="cluster">
<title>cluster_AuthModule</title>
<polygon fill="none" stroke="black" stroke-dasharray="1,5" points="8,-70 8,-195 877,-195 877,-70 8,-70"/>
</g>
<g id="clust6" class="cluster">
<title>cluster_AuthModule_providers</title>
<polygon fill="none" stroke="black" points="16,-78 16,-130 869,-130 869,-78 16,-78"/>
</g>
<!-- AdminService -->
<g id="node1" class="node">
<title>AdminService</title>
<ellipse fill="#fdb462" stroke="black" cx="794" cy="-104" rx="66.63" ry="18"/>
<text text-anchor="middle" x="794" y="-99.8" font-family="Times,serif" font-size="14.00">AdminService</text>
</g>
<!-- AuthModule -->
<g id="node7" class="node">
<title>AuthModule</title>
<polygon fill="#8dd3c7" stroke="black" points="495.55,-187 492.55,-191 471.55,-191 468.55,-187 408.45,-187 408.45,-151 495.55,-151 495.55,-187"/>
<text text-anchor="middle" x="452" y="-164.8" font-family="Times,serif" font-size="14.00">AuthModule</text>
</g>
<!-- AdminService&#45;&gt;AuthModule -->
<g id="edge1" class="edge">
<title>AdminService&#45;&gt;AuthModule</title>
<path fill="none" stroke="black" d="M794,-122.28C794,-143.32 794,-175 794,-175 794,-175 505.66,-175 505.66,-175"/>
<polygon fill="black" stroke="black" points="505.66,-171.5 495.66,-175 505.66,-178.5 505.66,-171.5"/>
</g>
<!-- AuthService -->
<g id="node2" class="node">
<title>AuthService</title>
<ellipse fill="#fdb462" stroke="black" cx="650" cy="-104" rx="59.11" ry="18"/>
<text text-anchor="middle" x="650" y="-99.8" font-family="Times,serif" font-size="14.00">AuthService</text>
</g>
<!-- AuthService&#45;&gt;AuthModule -->
<g id="edge2" class="edge">
<title>AuthService&#45;&gt;AuthModule</title>
<path fill="none" stroke="black" d="M650,-122.02C650,-139.37 650,-163 650,-163 650,-163 505.94,-163 505.94,-163"/>
<polygon fill="black" stroke="black" points="505.94,-159.5 495.94,-163 505.94,-166.5 505.94,-159.5"/>
</g>
<!-- DbService -->
<g id="node3" class="node">
<title>DbService</title>
<ellipse fill="#fdb462" stroke="black" cx="521" cy="-104" rx="51.58" ry="18"/>
<text text-anchor="middle" x="521" y="-99.8" font-family="Times,serif" font-size="14.00">DbService</text>
</g>
<!-- DbService&#45;&gt;AuthModule -->
<g id="edge3" class="edge">
<title>DbService&#45;&gt;AuthModule</title>
<path fill="none" stroke="black" d="M482.49,-116.23C482.49,-116.23 482.49,-140.68 482.49,-140.68"/>
<polygon fill="black" stroke="black" points="478.99,-140.68 482.49,-150.68 485.99,-140.68 478.99,-140.68"/>
</g>
<!-- FarmerService -->
<g id="node4" class="node">
<title>FarmerService</title>
<ellipse fill="#fdb462" stroke="black" cx="383" cy="-104" rx="67.75" ry="18"/>
<text text-anchor="middle" x="383" y="-99.8" font-family="Times,serif" font-size="14.00">FarmerService</text>
</g>
<!-- FarmerService&#45;&gt;AuthModule -->
<g id="edge4" class="edge">
<title>FarmerService&#45;&gt;AuthModule</title>
<path fill="none" stroke="black" d="M429.55,-117.15C429.55,-117.15 429.55,-140.69 429.55,-140.69"/>
<polygon fill="black" stroke="black" points="426.05,-140.69 429.55,-150.69 433.05,-140.69 426.05,-140.69"/>
</g>
<!-- MailService -->
<g id="node5" class="node">
<title>MailService</title>
<ellipse fill="#fdb462" stroke="black" cx="239" cy="-104" rx="58.46" ry="18"/>
<text text-anchor="middle" x="239" y="-99.8" font-family="Times,serif" font-size="14.00">MailService</text>
</g>
<!-- MailService&#45;&gt;AuthModule -->
<g id="edge5" class="edge">
<title>MailService&#45;&gt;AuthModule</title>
<path fill="none" stroke="black" d="M239,-122.02C239,-139.37 239,-163 239,-163 239,-163 398.38,-163 398.38,-163"/>
<polygon fill="black" stroke="black" points="398.38,-166.5 408.38,-163 398.38,-159.5 398.38,-166.5"/>
</g>
<!-- WorkerService -->
<g id="node6" class="node">
<title>WorkerService</title>
<ellipse fill="#fdb462" stroke="black" cx="93" cy="-104" rx="69.46" ry="18"/>
<text text-anchor="middle" x="93" y="-99.8" font-family="Times,serif" font-size="14.00">WorkerService</text>
</g>
<!-- WorkerService&#45;&gt;AuthModule -->
<g id="edge6" class="edge">
<title>WorkerService&#45;&gt;AuthModule</title>
<path fill="none" stroke="black" d="M93,-122.28C93,-143.32 93,-175 93,-175 93,-175 398.34,-175 398.34,-175"/>
<polygon fill="black" stroke="black" points="398.34,-178.5 408.34,-175 398.34,-171.5 398.34,-178.5"/>
</g>
</g>
</svg>
