<?xml version="1.0" encoding="UTF-8" standalone="no"?>
<!DOCTYPE svg PUBLIC "-//W3C//DTD SVG 1.1//EN"
 "http://www.w3.org/Graphics/SVG/1.1/DTD/svg11.dtd">
<!-- Generated by graphviz version 2.47.0 (20210316.0004)
 -->
<!-- Title: dependencies Pages: 1 -->
<svg width="504pt" height="211pt"
 viewBox="0.00 0.00 504.00 211.00" xmlns="http://www.w3.org/2000/svg" xmlns:xlink="http://www.w3.org/1999/xlink">
<g id="graph0" class="graph" transform="scale(1 1) rotate(0) translate(4 207)">
<title>dependencies</title>
<polygon fill="white" stroke="transparent" points="-4,4 -4,-207 500,-207 500,4 -4,4"/>
<text text-anchor="start" x="227.01" y="-42.4" font-family="Times-12" font-weight="bold" font-size="14.00">Legend</text>
<polygon fill="#ffffb3" stroke="transparent" points="14,-10 14,-30 34,-30 34,-10 14,-10"/>
<text text-anchor="start" x="37.63" y="-15.4" font-family="Times-12" font-size="14.00"> &#160;Declarations</text>
<polygon fill="#8dd3c7" stroke="transparent" points="127,-10 127,-30 147,-30 147,-10 127,-10"/>
<text text-anchor="start" x="150.73" y="-15.4" font-family="Times-12" font-size="14.00"> &#160;Module</text>
<polygon fill="#80b1d3" stroke="transparent" points="213,-10 213,-30 233,-30 233,-10 213,-10"/>
<text text-anchor="start" x="236.78" y="-15.4" font-family="Times-12" font-size="14.00"> &#160;Bootstrap</text>
<polygon fill="#fdb462" stroke="transparent" points="310,-10 310,-30 330,-30 330,-10 310,-10"/>
<text text-anchor="start" x="333.67" y="-15.4" font-family="Times-12" font-size="14.00"> &#160;Providers</text>
<polygon fill="#fb8072" stroke="transparent" points="406,-10 406,-30 426,-30 426,-10 406,-10"/>
<text text-anchor="start" x="429.73" y="-15.4" font-family="Times-12" font-size="14.00"> &#160;Exports</text>
<g id="clust1" class="cluster">
<title>cluster_InterventionModule</title>
<polygon fill="none" stroke="black" stroke-dasharray="1,5" points="28,-70 28,-195 468,-195 468,-70 28,-70"/>
</g>
<g id="clust3" class="cluster">
<title>cluster_InterventionModule_imports</title>
<polygon fill="none" stroke="black" points="356,-78 356,-130 460,-130 460,-78 356,-78"/>
</g>
<g id="clust6" class="cluster">
<title>cluster_InterventionModule_providers</title>
<polygon fill="none" stroke="black" points="36,-78 36,-130 348,-130 348,-78 36,-78"/>
</g>
<!-- AuthModule -->
<g id="node1" class="node">
<title>AuthModule</title>
<polygon fill="#8dd3c7" stroke="black" points="451.55,-122 448.55,-126 427.55,-126 424.55,-122 364.45,-122 364.45,-86 451.55,-86 451.55,-122"/>
<text text-anchor="middle" x="408" y="-99.8" font-family="Times,serif" font-size="14.00">AuthModule</text>
</g>
<!-- InterventionModule -->
<g id="node2" class="node">
<title>InterventionModule</title>
<polygon fill="#8dd3c7" stroke="black" points="351.97,-187 348.97,-191 327.97,-191 324.97,-187 224.03,-187 224.03,-151 351.97,-151 351.97,-187"/>
<text text-anchor="middle" x="288" y="-164.8" font-family="Times,serif" font-size="14.00">InterventionModule</text>
</g>
<!-- AuthModule&#45;&gt;InterventionModule -->
<g id="edge1" class="edge">
<title>AuthModule&#45;&gt;InterventionModule</title>
<path fill="none" stroke="black" d="M364.19,-104C353.91,-104 345.89,-104 345.89,-104 345.89,-104 345.89,-140.89 345.89,-140.89"/>
<polygon fill="black" stroke="black" points="342.39,-140.89 345.89,-150.89 349.39,-140.89 342.39,-140.89"/>
</g>
<!-- DbService -->
<g id="node3" class="node">
<title>DbService</title>
<ellipse fill="#fdb462" stroke="black" cx="288" cy="-104" rx="51.58" ry="18"/>
<text text-anchor="middle" x="288" y="-99.8" font-family="Times,serif" font-size="14.00">DbService</text>
</g>
<!-- DbService&#45;&gt;InterventionModule -->
<g id="edge2" class="edge">
<title>DbService&#45;&gt;InterventionModule</title>
<path fill="none" stroke="black" d="M288,-122.11C288,-122.11 288,-140.99 288,-140.99"/>
<polygon fill="black" stroke="black" points="284.5,-140.99 288,-150.99 291.5,-140.99 284.5,-140.99"/>
</g>
<!-- InterventionService -->
<g id="node4" class="node">
<title>InterventionService</title>
<ellipse fill="#fdb462" stroke="black" cx="131" cy="-104" rx="87.38" ry="18"/>
<text text-anchor="middle" x="131" y="-99.8" font-family="Times,serif" font-size="14.00">InterventionService</text>
</g>
<!-- InterventionService&#45;&gt;InterventionModule -->
<g id="edge3" class="edge">
<title>InterventionService&#45;&gt;InterventionModule</title>
<path fill="none" stroke="black" d="M218.35,-104C225.54,-104 230.11,-104 230.11,-104 230.11,-104 230.11,-140.89 230.11,-140.89"/>
<polygon fill="black" stroke="black" points="226.61,-140.89 230.11,-150.89 233.61,-140.89 226.61,-140.89"/>
</g>
</g>
</svg>
