<?xml version="1.0" encoding="UTF-8" standalone="no"?>
<!DOCTYPE svg PUBLIC "-//W3C//DTD SVG 1.1//EN"
 "http://www.w3.org/Graphics/SVG/1.1/DTD/svg11.dtd">
<!-- Generated by graphviz version 2.47.0 (20210316.0004)
 -->
<!-- Title: dependencies Pages: 1 -->
<svg width="1085pt" height="211pt"
 viewBox="0.00 0.00 1085.00 211.00" xmlns="http://www.w3.org/2000/svg" xmlns:xlink="http://www.w3.org/1999/xlink">
<g id="graph0" class="graph" transform="scale(1 1) rotate(0) translate(4 207)">
<title>dependencies</title>
<polygon fill="white" stroke="transparent" points="-4,4 -4,-207 1081,-207 1081,4 -4,4"/>
<text text-anchor="start" x="517.51" y="-42.4" font-family="Times-12" font-weight="bold" font-size="14.00">Legend</text>
<polygon fill="#ffffb3" stroke="transparent" points="304.5,-10 304.5,-30 324.5,-30 324.5,-10 304.5,-10"/>
<text text-anchor="start" x="328.13" y="-15.4" font-family="Times-12" font-size="14.00"> &#160;Declarations</text>
<polygon fill="#8dd3c7" stroke="transparent" points="417.5,-10 417.5,-30 437.5,-30 437.5,-10 417.5,-10"/>
<text text-anchor="start" x="441.23" y="-15.4" font-family="Times-12" font-size="14.00"> &#160;Module</text>
<polygon fill="#80b1d3" stroke="transparent" points="503.5,-10 503.5,-30 523.5,-30 523.5,-10 503.5,-10"/>
<text text-anchor="start" x="527.28" y="-15.4" font-family="Times-12" font-size="14.00"> &#160;Bootstrap</text>
<polygon fill="#fdb462" stroke="transparent" points="600.5,-10 600.5,-30 620.5,-30 620.5,-10 600.5,-10"/>
<text text-anchor="start" x="624.17" y="-15.4" font-family="Times-12" font-size="14.00"> &#160;Providers</text>
<polygon fill="#fb8072" stroke="transparent" points="696.5,-10 696.5,-30 716.5,-30 716.5,-10 696.5,-10"/>
<text text-anchor="start" x="720.23" y="-15.4" font-family="Times-12" font-size="14.00"> &#160;Exports</text>
<g id="clust1" class="cluster">
<title>cluster_CooperativeModule</title>
<polygon fill="none" stroke="black" stroke-dasharray="1,5" points="8,-70 8,-195 1069,-195 1069,-70 8,-70"/>
</g>
<g id="clust6" class="cluster">
<title>cluster_CooperativeModule_providers</title>
<polygon fill="none" stroke="black" points="16,-78 16,-130 1061,-130 1061,-78 16,-78"/>
</g>
<!-- AdminService -->
<g id="node1" class="node">
<title>AdminService</title>
<ellipse fill="#fdb462" stroke="black" cx="986" cy="-104" rx="66.63" ry="18"/>
<text text-anchor="middle" x="986" y="-99.8" font-family="Times,serif" font-size="14.00">AdminService</text>
</g>
<!-- CooperativeModule -->
<g id="node8" class="node">
<title>CooperativeModule</title>
<polygon fill="#8dd3c7" stroke="black" points="584.97,-187 581.97,-191 560.97,-191 557.97,-187 457.03,-187 457.03,-151 584.97,-151 584.97,-187"/>
<text text-anchor="middle" x="521" y="-164.8" font-family="Times,serif" font-size="14.00">CooperativeModule</text>
</g>
<!-- AdminService&#45;&gt;CooperativeModule -->
<g id="edge1" class="edge">
<title>AdminService&#45;&gt;CooperativeModule</title>
<path fill="none" stroke="black" d="M986,-122.28C986,-143.32 986,-175 986,-175 986,-175 595.17,-175 595.17,-175"/>
<polygon fill="black" stroke="black" points="595.17,-171.5 585.17,-175 595.17,-178.5 595.17,-171.5"/>
</g>
<!-- AuthService -->
<g id="node2" class="node">
<title>AuthService</title>
<ellipse fill="#fdb462" stroke="black" cx="842" cy="-104" rx="59.11" ry="18"/>
<text text-anchor="middle" x="842" y="-99.8" font-family="Times,serif" font-size="14.00">AuthService</text>
</g>
<!-- AuthService&#45;&gt;CooperativeModule -->
<g id="edge2" class="edge">
<title>AuthService&#45;&gt;CooperativeModule</title>
<path fill="none" stroke="black" d="M842,-122.02C842,-139.37 842,-163 842,-163 842,-163 595.19,-163 595.19,-163"/>
<polygon fill="black" stroke="black" points="595.19,-159.5 585.19,-163 595.19,-166.5 595.19,-159.5"/>
</g>
<!-- CooperativeService -->
<g id="node3" class="node">
<title>CooperativeService</title>
<ellipse fill="#fdb462" stroke="black" cx="678" cy="-104" rx="87.38" ry="18"/>
<text text-anchor="middle" x="678" y="-99.8" font-family="Times,serif" font-size="14.00">CooperativeService</text>
</g>
<!-- CooperativeService&#45;&gt;CooperativeModule -->
<g id="edge3" class="edge">
<title>CooperativeService&#45;&gt;CooperativeModule</title>
<path fill="none" stroke="black" d="M590.65,-104C583.46,-104 578.89,-104 578.89,-104 578.89,-104 578.89,-140.89 578.89,-140.89"/>
<polygon fill="black" stroke="black" points="575.39,-140.89 578.89,-150.89 582.39,-140.89 575.39,-140.89"/>
</g>
<!-- DbService -->
<g id="node4" class="node">
<title>DbService</title>
<ellipse fill="#fdb462" stroke="black" cx="521" cy="-104" rx="51.58" ry="18"/>
<text text-anchor="middle" x="521" y="-99.8" font-family="Times,serif" font-size="14.00">DbService</text>
</g>
<!-- DbService&#45;&gt;CooperativeModule -->
<g id="edge4" class="edge">
<title>DbService&#45;&gt;CooperativeModule</title>
<path fill="none" stroke="black" d="M521,-122.11C521,-122.11 521,-140.99 521,-140.99"/>
<polygon fill="black" stroke="black" points="517.5,-140.99 521,-150.99 524.5,-140.99 517.5,-140.99"/>
</g>
<!-- FarmerService -->
<g id="node5" class="node">
<title>FarmerService</title>
<ellipse fill="#fdb462" stroke="black" cx="383" cy="-104" rx="67.75" ry="18"/>
<text text-anchor="middle" x="383" y="-99.8" font-family="Times,serif" font-size="14.00">FarmerService</text>
</g>
<!-- FarmerService&#45;&gt;CooperativeModule -->
<g id="edge5" class="edge">
<title>FarmerService&#45;&gt;CooperativeModule</title>
<path fill="none" stroke="black" d="M450.94,-104C458.26,-104 463.11,-104 463.11,-104 463.11,-104 463.11,-140.89 463.11,-140.89"/>
<polygon fill="black" stroke="black" points="459.61,-140.89 463.11,-150.89 466.61,-140.89 459.61,-140.89"/>
</g>
<!-- MailService -->
<g id="node6" class="node">
<title>MailService</title>
<ellipse fill="#fdb462" stroke="black" cx="239" cy="-104" rx="58.46" ry="18"/>
<text text-anchor="middle" x="239" y="-99.8" font-family="Times,serif" font-size="14.00">MailService</text>
</g>
<!-- MailService&#45;&gt;CooperativeModule -->
<g id="edge6" class="edge">
<title>MailService&#45;&gt;CooperativeModule</title>
<path fill="none" stroke="black" d="M239,-122.02C239,-139.37 239,-163 239,-163 239,-163 447.01,-163 447.01,-163"/>
<polygon fill="black" stroke="black" points="447.01,-166.5 457.01,-163 447.01,-159.5 447.01,-166.5"/>
</g>
<!-- WorkerService -->
<g id="node7" class="node">
<title>WorkerService</title>
<ellipse fill="#fdb462" stroke="black" cx="93" cy="-104" rx="69.46" ry="18"/>
<text text-anchor="middle" x="93" y="-99.8" font-family="Times,serif" font-size="14.00">WorkerService</text>
</g>
<!-- WorkerService&#45;&gt;CooperativeModule -->
<g id="edge7" class="edge">
<title>WorkerService&#45;&gt;CooperativeModule</title>
<path fill="none" stroke="black" d="M93,-122.28C93,-143.32 93,-175 93,-175 93,-175 446.92,-175 446.92,-175"/>
<polygon fill="black" stroke="black" points="446.92,-178.5 456.92,-175 446.92,-171.5 446.92,-178.5"/>
</g>
</g>
</svg>
