<?xml version="1.0" encoding="UTF-8" standalone="no"?>
<!DOCTYPE svg PUBLIC "-//W3C//DTD SVG 1.1//EN"
 "http://www.w3.org/Graphics/SVG/1.1/DTD/svg11.dtd">
<!-- Generated by graphviz version 2.47.0 (20210316.0004)
 -->
<!-- Title: dependencies Pages: 1 -->
<svg width="504pt" height="211pt"
 viewBox="0.00 0.00 504.00 211.00" xmlns="http://www.w3.org/2000/svg" xmlns:xlink="http://www.w3.org/1999/xlink">
<g id="graph0" class="graph" transform="scale(1 1) rotate(0) translate(4 207)">
<title>dependencies</title>
<polygon fill="white" stroke="transparent" points="-4,4 -4,-207 500,-207 500,4 -4,4"/>
<text text-anchor="start" x="227.01" y="-42.4" font-family="Times-12" font-weight="bold" font-size="14.00">Legend</text>
<polygon fill="#ffffb3" stroke="transparent" points="14,-10 14,-30 34,-30 34,-10 14,-10"/>
<text text-anchor="start" x="37.63" y="-15.4" font-family="Times-12" font-size="14.00"> &#160;Declarations</text>
<polygon fill="#8dd3c7" stroke="transparent" points="127,-10 127,-30 147,-30 147,-10 127,-10"/>
<text text-anchor="start" x="150.73" y="-15.4" font-family="Times-12" font-size="14.00"> &#160;Module</text>
<polygon fill="#80b1d3" stroke="transparent" points="213,-10 213,-30 233,-30 233,-10 213,-10"/>
<text text-anchor="start" x="236.78" y="-15.4" font-family="Times-12" font-size="14.00"> &#160;Bootstrap</text>
<polygon fill="#fdb462" stroke="transparent" points="310,-10 310,-30 330,-30 330,-10 310,-10"/>
<text text-anchor="start" x="333.67" y="-15.4" font-family="Times-12" font-size="14.00"> &#160;Providers</text>
<polygon fill="#fb8072" stroke="transparent" points="406,-10 406,-30 426,-30 426,-10 406,-10"/>
<text text-anchor="start" x="429.73" y="-15.4" font-family="Times-12" font-size="14.00"> &#160;Exports</text>
<g id="clust1" class="cluster">
<title>cluster_MilestoneModule</title>
<polygon fill="none" stroke="black" stroke-dasharray="1,5" points="92.5,-70 92.5,-195 403.5,-195 403.5,-70 92.5,-70"/>
</g>
<g id="clust6" class="cluster">
<title>cluster_MilestoneModule_providers</title>
<polygon fill="none" stroke="black" points="100.5,-78 100.5,-130 395.5,-130 395.5,-78 100.5,-78"/>
</g>
<!-- DbService -->
<g id="node1" class="node">
<title>DbService</title>
<ellipse fill="#fdb462" stroke="black" cx="335.5" cy="-104" rx="51.58" ry="18"/>
<text text-anchor="middle" x="335.5" y="-99.8" font-family="Times,serif" font-size="14.00">DbService</text>
</g>
<!-- MilestoneModule -->
<g id="node3" class="node">
<title>MilestoneModule</title>
<polygon fill="#8dd3c7" stroke="black" points="319.04,-187 316.04,-191 295.04,-191 292.04,-187 203.96,-187 203.96,-151 319.04,-151 319.04,-187"/>
<text text-anchor="middle" x="261.5" y="-164.8" font-family="Times,serif" font-size="14.00">MilestoneModule</text>
</g>
<!-- DbService&#45;&gt;MilestoneModule -->
<g id="edge1" class="edge">
<title>DbService&#45;&gt;MilestoneModule</title>
<path fill="none" stroke="black" d="M301.49,-117.78C301.49,-117.78 301.49,-140.55 301.49,-140.55"/>
<polygon fill="black" stroke="black" points="297.99,-140.55 301.49,-150.55 304.99,-140.55 297.99,-140.55"/>
</g>
<!-- MilestoneService -->
<g id="node2" class="node">
<title>MilestoneService</title>
<ellipse fill="#fdb462" stroke="black" cx="187.5" cy="-104" rx="78.73" ry="18"/>
<text text-anchor="middle" x="187.5" y="-99.8" font-family="Times,serif" font-size="14.00">MilestoneService</text>
</g>
<!-- MilestoneService&#45;&gt;MilestoneModule -->
<g id="edge2" class="edge">
<title>MilestoneService&#45;&gt;MilestoneModule</title>
<path fill="none" stroke="black" d="M234.92,-118.43C234.92,-118.43 234.92,-140.89 234.92,-140.89"/>
<polygon fill="black" stroke="black" points="231.42,-140.89 234.92,-150.89 238.42,-140.89 231.42,-140.89"/>
</g>
</g>
</svg>
