<?xml version="1.0" encoding="UTF-8" standalone="no"?>
<!DOCTYPE svg PUBLIC "-//W3C//DTD SVG 1.1//EN"
 "http://www.w3.org/Graphics/SVG/1.1/DTD/svg11.dtd">
<!-- Generated by graphviz version 2.47.0 (20210316.0004)
 -->
<!-- Title: dependencies Pages: 1 -->
<svg width="504pt" height="211pt"
 viewBox="0.00 0.00 504.00 211.00" xmlns="http://www.w3.org/2000/svg" xmlns:xlink="http://www.w3.org/1999/xlink">
<g id="graph0" class="graph" transform="scale(1 1) rotate(0) translate(4 207)">
<title>dependencies</title>
<polygon fill="white" stroke="transparent" points="-4,4 -4,-207 500,-207 500,4 -4,4"/>
<text text-anchor="start" x="227.01" y="-42.4" font-family="Times-12" font-weight="bold" font-size="14.00">Legend</text>
<polygon fill="#ffffb3" stroke="transparent" points="14,-10 14,-30 34,-30 34,-10 14,-10"/>
<text text-anchor="start" x="37.63" y="-15.4" font-family="Times-12" font-size="14.00"> &#160;Declarations</text>
<polygon fill="#8dd3c7" stroke="transparent" points="127,-10 127,-30 147,-30 147,-10 127,-10"/>
<text text-anchor="start" x="150.73" y="-15.4" font-family="Times-12" font-size="14.00"> &#160;Module</text>
<polygon fill="#80b1d3" stroke="transparent" points="213,-10 213,-30 233,-30 233,-10 213,-10"/>
<text text-anchor="start" x="236.78" y="-15.4" font-family="Times-12" font-size="14.00"> &#160;Bootstrap</text>
<polygon fill="#fdb462" stroke="transparent" points="310,-10 310,-30 330,-30 330,-10 310,-10"/>
<text text-anchor="start" x="333.67" y="-15.4" font-family="Times-12" font-size="14.00"> &#160;Providers</text>
<polygon fill="#fb8072" stroke="transparent" points="406,-10 406,-30 426,-30 426,-10 406,-10"/>
<text text-anchor="start" x="429.73" y="-15.4" font-family="Times-12" font-size="14.00"> &#160;Exports</text>
<g id="clust1" class="cluster">
<title>cluster_LocalgovernmentModule</title>
<polygon fill="none" stroke="black" stroke-dasharray="1,5" points="17,-70 17,-195 479,-195 479,-70 17,-70"/>
</g>
<g id="clust6" class="cluster">
<title>cluster_LocalgovernmentModule_providers</title>
<polygon fill="none" stroke="black" points="25,-78 25,-130 471,-130 471,-78 25,-78"/>
</g>
<!-- DbService -->
<g id="node1" class="node">
<title>DbService</title>
<ellipse fill="#fdb462" stroke="black" cx="411" cy="-104" rx="51.58" ry="18"/>
<text text-anchor="middle" x="411" y="-99.8" font-family="Times,serif" font-size="14.00">DbService</text>
</g>
<!-- LocalgovernmentModule -->
<g id="node4" class="node">
<title>LocalgovernmentModule</title>
<polygon fill="#8dd3c7" stroke="black" points="350.29,-187 347.29,-191 326.29,-191 323.29,-187 191.71,-187 191.71,-151 350.29,-151 350.29,-187"/>
<text text-anchor="middle" x="271" y="-164.8" font-family="Times,serif" font-size="14.00">LocalgovernmentModule</text>
</g>
<!-- DbService&#45;&gt;LocalgovernmentModule -->
<g id="edge1" class="edge">
<title>DbService&#45;&gt;LocalgovernmentModule</title>
<path fill="none" stroke="black" d="M359.14,-104C351.2,-104 345.59,-104 345.59,-104 345.59,-104 345.59,-140.89 345.59,-140.89"/>
<polygon fill="black" stroke="black" points="342.09,-140.89 345.59,-150.89 349.09,-140.89 342.09,-140.89"/>
</g>
<!-- LolGovService -->
<g id="node2" class="node">
<title>LolGovService</title>
<ellipse fill="#fdb462" stroke="black" cx="271" cy="-104" rx="70.06" ry="18"/>
<text text-anchor="middle" x="271" y="-99.8" font-family="Times,serif" font-size="14.00">LolGovService</text>
</g>
<!-- LolGovService&#45;&gt;LocalgovernmentModule -->
<g id="edge2" class="edge">
<title>LolGovService&#45;&gt;LocalgovernmentModule</title>
<path fill="none" stroke="black" d="M271,-122.11C271,-122.11 271,-140.99 271,-140.99"/>
<polygon fill="black" stroke="black" points="267.5,-140.99 271,-150.99 274.5,-140.99 267.5,-140.99"/>
</g>
<!-- StatisticsService -->
<g id="node3" class="node">
<title>StatisticsService</title>
<ellipse fill="#fdb462" stroke="black" cx="108" cy="-104" rx="74.73" ry="18"/>
<text text-anchor="middle" x="108" y="-99.8" font-family="Times,serif" font-size="14.00">StatisticsService</text>
</g>
<!-- StatisticsService&#45;&gt;LocalgovernmentModule -->
<g id="edge3" class="edge">
<title>StatisticsService&#45;&gt;LocalgovernmentModule</title>
<path fill="none" stroke="black" d="M182.98,-104C191.06,-104 196.41,-104 196.41,-104 196.41,-104 196.41,-140.89 196.41,-140.89"/>
<polygon fill="black" stroke="black" points="192.91,-140.89 196.41,-150.89 199.91,-140.89 192.91,-140.89"/>
</g>
</g>
</svg>
