<?xml version="1.0" encoding="UTF-8" standalone="no"?>
<!DOCTYPE svg PUBLIC "-//W3C//DTD SVG 1.1//EN"
 "http://www.w3.org/Graphics/SVG/1.1/DTD/svg11.dtd">
<!-- Generated by graphviz version 2.47.0 (20210316.0004)
 -->
<!-- Title: dependencies Pages: 1 -->
<svg width="504pt" height="284pt"
 viewBox="0.00 0.00 504.00 284.00" xmlns="http://www.w3.org/2000/svg" xmlns:xlink="http://www.w3.org/1999/xlink">
<g id="graph0" class="graph" transform="scale(1 1) rotate(0) translate(4 280)">
<title>dependencies</title>
<polygon fill="white" stroke="transparent" points="-4,4 -4,-280 500,-280 500,4 -4,4"/>
<text text-anchor="start" x="227.01" y="-42.4" font-family="Times-12" font-weight="bold" font-size="14.00">Legend</text>
<polygon fill="#ffffb3" stroke="transparent" points="14,-10 14,-30 34,-30 34,-10 14,-10"/>
<text text-anchor="start" x="37.63" y="-15.4" font-family="Times-12" font-size="14.00"> &#160;Declarations</text>
<polygon fill="#8dd3c7" stroke="transparent" points="127,-10 127,-30 147,-30 147,-10 127,-10"/>
<text text-anchor="start" x="150.73" y="-15.4" font-family="Times-12" font-size="14.00"> &#160;Module</text>
<polygon fill="#80b1d3" stroke="transparent" points="213,-10 213,-30 233,-30 233,-10 213,-10"/>
<text text-anchor="start" x="236.78" y="-15.4" font-family="Times-12" font-size="14.00"> &#160;Bootstrap</text>
<polygon fill="#fdb462" stroke="transparent" points="310,-10 310,-30 330,-30 330,-10 310,-10"/>
<text text-anchor="start" x="333.67" y="-15.4" font-family="Times-12" font-size="14.00"> &#160;Providers</text>
<polygon fill="#fb8072" stroke="transparent" points="406,-10 406,-30 426,-30 426,-10 406,-10"/>
<text text-anchor="start" x="429.73" y="-15.4" font-family="Times-12" font-size="14.00"> &#160;Exports</text>
<g id="clust1" class="cluster">
<title>cluster_LibModule</title>
<polygon fill="none" stroke="black" stroke-dasharray="1,5" points="85.5,-70 85.5,-268 410.5,-268 410.5,-70 85.5,-70"/>
</g>
<g id="clust4" class="cluster">
<title>cluster_LibModule_exports</title>
<polygon fill="none" stroke="black" points="202.5,-208 202.5,-260 298.5,-260 298.5,-208 202.5,-208"/>
</g>
<g id="clust3" class="cluster">
<title>cluster_LibModule_imports</title>
<polygon fill="none" stroke="black" points="93.5,-78 93.5,-130 402.5,-130 402.5,-78 93.5,-78"/>
</g>
<!-- AuthModule -->
<g id="node1" class="node">
<title>AuthModule</title>
<polygon fill="#8dd3c7" stroke="black" points="394.05,-122 391.05,-126 370.05,-126 367.05,-122 306.95,-122 306.95,-86 394.05,-86 394.05,-122"/>
<text text-anchor="middle" x="350.5" y="-99.8" font-family="Times,serif" font-size="14.00">AuthModule</text>
</g>
<!-- LibModule -->
<g id="node4" class="node">
<title>LibModule</title>
<polygon fill="#8dd3c7" stroke="black" points="289.99,-187 286.99,-191 265.99,-191 262.99,-187 211.01,-187 211.01,-151 289.99,-151 289.99,-187"/>
<text text-anchor="middle" x="250.5" y="-164.8" font-family="Times,serif" font-size="14.00">LibModule</text>
</g>
<!-- AuthModule&#45;&gt;LibModule -->
<g id="edge1" class="edge">
<title>AuthModule&#45;&gt;LibModule</title>
<path fill="none" stroke="black" d="M350.5,-122.11C350.5,-141.34 350.5,-169 350.5,-169 350.5,-169 300.02,-169 300.02,-169"/>
<polygon fill="black" stroke="black" points="300.02,-165.5 290.02,-169 300.02,-172.5 300.02,-165.5"/>
</g>
<!-- DbModule -->
<g id="node2" class="node">
<title>DbModule</title>
<polygon fill="#8dd3c7" stroke="black" points="288.66,-122 285.66,-126 264.66,-126 261.66,-122 212.34,-122 212.34,-86 288.66,-86 288.66,-122"/>
<text text-anchor="middle" x="250.5" y="-99.8" font-family="Times,serif" font-size="14.00">DbModule</text>
</g>
<!-- DbModule&#45;&gt;LibModule -->
<g id="edge2" class="edge">
<title>DbModule&#45;&gt;LibModule</title>
<path fill="none" stroke="black" d="M250.5,-122.11C250.5,-122.11 250.5,-140.99 250.5,-140.99"/>
<polygon fill="black" stroke="black" points="247,-140.99 250.5,-150.99 254,-140.99 247,-140.99"/>
</g>
<!-- EmailModule -->
<g id="node3" class="node">
<title>EmailModule</title>
<polygon fill="#8dd3c7" stroke="black" points="193.99,-122 190.99,-126 169.99,-126 166.99,-122 101.01,-122 101.01,-86 193.99,-86 193.99,-122"/>
<text text-anchor="middle" x="147.5" y="-99.8" font-family="Times,serif" font-size="14.00">EmailModule</text>
</g>
<!-- EmailModule&#45;&gt;LibModule -->
<g id="edge3" class="edge">
<title>EmailModule&#45;&gt;LibModule</title>
<path fill="none" stroke="black" d="M147.5,-122.11C147.5,-141.34 147.5,-169 147.5,-169 147.5,-169 200.97,-169 200.97,-169"/>
<polygon fill="black" stroke="black" points="200.97,-172.5 210.97,-169 200.97,-165.5 200.97,-172.5"/>
</g>
<!-- LibService  -->
<g id="node5" class="node">
<title>LibService </title>
<polygon fill="#fb8072" stroke="black" points="290.92,-252 210.08,-252 210.08,-216 290.92,-216 290.92,-252"/>
<text text-anchor="middle" x="250.5" y="-229.8" font-family="Times,serif" font-size="14.00">LibService </text>
</g>
<!-- LibModule&#45;&gt;LibService  -->
<g id="edge4" class="edge">
<title>LibModule&#45;&gt;LibService </title>
<path fill="none" stroke="black" stroke-dasharray="5,2" d="M250.5,-187.11C250.5,-187.11 250.5,-205.99 250.5,-205.99"/>
<polygon fill="black" stroke="black" points="247,-205.99 250.5,-215.99 254,-205.99 247,-205.99"/>
</g>
</g>
</svg>
