<?xml version="1.0" encoding="UTF-8" standalone="no"?>
<!DOCTYPE svg PUBLIC "-//W3C//DTD SVG 1.1//EN"
 "http://www.w3.org/Graphics/SVG/1.1/DTD/svg11.dtd">
<!-- Generated by graphviz version 2.47.0 (20210316.0004)
 -->
<!-- Title: dependencies Pages: 1 -->
<svg width="836pt" height="211pt"
 viewBox="0.00 0.00 836.00 211.00" xmlns="http://www.w3.org/2000/svg" xmlns:xlink="http://www.w3.org/1999/xlink">
<g id="graph0" class="graph" transform="scale(1 1) rotate(0) translate(4 207)">
<title>dependencies</title>
<polygon fill="white" stroke="transparent" points="-4,4 -4,-207 832,-207 832,4 -4,4"/>
<text text-anchor="start" x="393.01" y="-42.4" font-family="Times-12" font-weight="bold" font-size="14.00">Legend</text>
<polygon fill="#ffffb3" stroke="transparent" points="180,-10 180,-30 200,-30 200,-10 180,-10"/>
<text text-anchor="start" x="203.63" y="-15.4" font-family="Times-12" font-size="14.00"> &#160;Declarations</text>
<polygon fill="#8dd3c7" stroke="transparent" points="293,-10 293,-30 313,-30 313,-10 293,-10"/>
<text text-anchor="start" x="316.73" y="-15.4" font-family="Times-12" font-size="14.00"> &#160;Module</text>
<polygon fill="#80b1d3" stroke="transparent" points="379,-10 379,-30 399,-30 399,-10 379,-10"/>
<text text-anchor="start" x="402.78" y="-15.4" font-family="Times-12" font-size="14.00"> &#160;Bootstrap</text>
<polygon fill="#fdb462" stroke="transparent" points="476,-10 476,-30 496,-30 496,-10 476,-10"/>
<text text-anchor="start" x="499.67" y="-15.4" font-family="Times-12" font-size="14.00"> &#160;Providers</text>
<polygon fill="#fb8072" stroke="transparent" points="572,-10 572,-30 592,-30 592,-10 572,-10"/>
<text text-anchor="start" x="595.73" y="-15.4" font-family="Times-12" font-size="14.00"> &#160;Exports</text>
<g id="clust1" class="cluster">
<title>cluster_AdminModule</title>
<polygon fill="none" stroke="black" stroke-dasharray="1,5" points="8,-70 8,-195 820,-195 820,-70 8,-70"/>
</g>
<g id="clust3" class="cluster">
<title>cluster_AdminModule_imports</title>
<polygon fill="none" stroke="black" points="742,-78 742,-130 812,-130 812,-78 742,-78"/>
</g>
<g id="clust6" class="cluster">
<title>cluster_AdminModule_providers</title>
<polygon fill="none" stroke="black" points="16,-78 16,-130 734,-130 734,-78 16,-78"/>
</g>
<!-- Admin -->
<g id="node1" class="node">
<title>Admin</title>
<polygon fill="#8dd3c7" stroke="black" points="804.39,-122 801.39,-126 780.39,-126 777.39,-122 749.61,-122 749.61,-86 804.39,-86 804.39,-122"/>
<text text-anchor="middle" x="777" y="-99.8" font-family="Times,serif" font-size="14.00">Admin</text>
</g>
<!-- AdminModule -->
<g id="node2" class="node">
<title>AdminModule</title>
<polygon fill="#8dd3c7" stroke="black" points="499.44,-187 496.44,-191 475.44,-191 472.44,-187 400.56,-187 400.56,-151 499.44,-151 499.44,-187"/>
<text text-anchor="middle" x="450" y="-164.8" font-family="Times,serif" font-size="14.00">AdminModule</text>
</g>
<!-- Admin&#45;&gt;AdminModule -->
<g id="edge1" class="edge">
<title>Admin&#45;&gt;AdminModule</title>
<path fill="none" stroke="black" d="M777,-122.28C777,-143.32 777,-175 777,-175 777,-175 509.31,-175 509.31,-175"/>
<polygon fill="black" stroke="black" points="509.31,-171.5 499.31,-175 509.31,-178.5 509.31,-171.5"/>
</g>
<!-- AdminService -->
<g id="node3" class="node">
<title>AdminService</title>
<ellipse fill="#fdb462" stroke="black" cx="659" cy="-104" rx="66.63" ry="18"/>
<text text-anchor="middle" x="659" y="-99.8" font-family="Times,serif" font-size="14.00">AdminService</text>
</g>
<!-- AdminService&#45;&gt;AdminModule -->
<g id="edge2" class="edge">
<title>AdminService&#45;&gt;AdminModule</title>
<path fill="none" stroke="black" d="M659,-122.02C659,-139.37 659,-163 659,-163 659,-163 509.27,-163 509.27,-163"/>
<polygon fill="black" stroke="black" points="509.27,-159.5 499.27,-163 509.27,-166.5 509.27,-159.5"/>
</g>
<!-- AuthService -->
<g id="node4" class="node">
<title>AuthService</title>
<ellipse fill="#fdb462" stroke="black" cx="515" cy="-104" rx="59.11" ry="18"/>
<text text-anchor="middle" x="515" y="-99.8" font-family="Times,serif" font-size="14.00">AuthService</text>
</g>
<!-- AuthService&#45;&gt;AdminModule -->
<g id="edge3" class="edge">
<title>AuthService&#45;&gt;AdminModule</title>
<path fill="none" stroke="black" d="M477.46,-118.1C477.46,-118.1 477.46,-140.72 477.46,-140.72"/>
<polygon fill="black" stroke="black" points="473.96,-140.72 477.46,-150.72 480.96,-140.72 473.96,-140.72"/>
</g>
<!-- DbService -->
<g id="node5" class="node">
<title>DbService</title>
<ellipse fill="#fdb462" stroke="black" cx="386" cy="-104" rx="51.58" ry="18"/>
<text text-anchor="middle" x="386" y="-99.8" font-family="Times,serif" font-size="14.00">DbService</text>
</g>
<!-- DbService&#45;&gt;AdminModule -->
<g id="edge4" class="edge">
<title>DbService&#45;&gt;AdminModule</title>
<path fill="none" stroke="black" d="M419.29,-118.1C419.29,-118.1 419.29,-140.72 419.29,-140.72"/>
<polygon fill="black" stroke="black" points="415.79,-140.72 419.29,-150.72 422.79,-140.72 415.79,-140.72"/>
</g>
<!-- FarmerService -->
<g id="node6" class="node">
<title>FarmerService</title>
<ellipse fill="#fdb462" stroke="black" cx="248" cy="-104" rx="67.75" ry="18"/>
<text text-anchor="middle" x="248" y="-99.8" font-family="Times,serif" font-size="14.00">FarmerService</text>
</g>
<!-- FarmerService&#45;&gt;AdminModule -->
<g id="edge5" class="edge">
<title>FarmerService&#45;&gt;AdminModule</title>
<path fill="none" stroke="black" d="M248,-122.02C248,-139.37 248,-163 248,-163 248,-163 390.59,-163 390.59,-163"/>
<polygon fill="black" stroke="black" points="390.59,-166.5 400.59,-163 390.59,-159.5 390.59,-166.5"/>
</g>
<!-- WorkerService -->
<g id="node7" class="node">
<title>WorkerService</title>
<ellipse fill="#fdb462" stroke="black" cx="93" cy="-104" rx="69.46" ry="18"/>
<text text-anchor="middle" x="93" y="-99.8" font-family="Times,serif" font-size="14.00">WorkerService</text>
</g>
<!-- WorkerService&#45;&gt;AdminModule -->
<g id="edge6" class="edge">
<title>WorkerService&#45;&gt;AdminModule</title>
<path fill="none" stroke="black" d="M93,-122.28C93,-143.32 93,-175 93,-175 93,-175 390.74,-175 390.74,-175"/>
<polygon fill="black" stroke="black" points="390.74,-178.5 400.74,-175 390.74,-171.5 390.74,-178.5"/>
</g>
</g>
</svg>
