<?xml version="1.0" encoding="UTF-8" standalone="no"?>
<!DOCTYPE svg PUBLIC "-//W3C//DTD SVG 1.1//EN"
 "http://www.w3.org/Graphics/SVG/1.1/DTD/svg11.dtd">
<!-- Generated by graphviz version 2.47.0 (20210316.0004)
 -->
<!-- Title: dependencies Pages: 1 -->
<svg width="2007pt" height="211pt"
 viewBox="0.00 0.00 2007.00 211.00" xmlns="http://www.w3.org/2000/svg" xmlns:xlink="http://www.w3.org/1999/xlink">
<g id="graph0" class="graph" transform="scale(1 1) rotate(0) translate(4 207)">
<title>dependencies</title>
<polygon fill="white" stroke="transparent" points="-4,4 -4,-207 2003,-207 2003,4 -4,4"/>
<text text-anchor="start" x="978.51" y="-42.4" font-family="Times-12" font-weight="bold" font-size="14.00">Legend</text>
<polygon fill="#ffffb3" stroke="transparent" points="765.5,-10 765.5,-30 785.5,-30 785.5,-10 765.5,-10"/>
<text text-anchor="start" x="789.13" y="-15.4" font-family="Times-12" font-size="14.00"> &#160;Declarations</text>
<polygon fill="#8dd3c7" stroke="transparent" points="878.5,-10 878.5,-30 898.5,-30 898.5,-10 878.5,-10"/>
<text text-anchor="start" x="902.23" y="-15.4" font-family="Times-12" font-size="14.00"> &#160;Module</text>
<polygon fill="#80b1d3" stroke="transparent" points="964.5,-10 964.5,-30 984.5,-30 984.5,-10 964.5,-10"/>
<text text-anchor="start" x="988.28" y="-15.4" font-family="Times-12" font-size="14.00"> &#160;Bootstrap</text>
<polygon fill="#fdb462" stroke="transparent" points="1061.5,-10 1061.5,-30 1081.5,-30 1081.5,-10 1061.5,-10"/>
<text text-anchor="start" x="1085.17" y="-15.4" font-family="Times-12" font-size="14.00"> &#160;Providers</text>
<polygon fill="#fb8072" stroke="transparent" points="1157.5,-10 1157.5,-30 1177.5,-30 1177.5,-10 1157.5,-10"/>
<text text-anchor="start" x="1181.23" y="-15.4" font-family="Times-12" font-size="14.00"> &#160;Exports</text>
<g id="clust1" class="cluster">
<title>cluster_AppModule</title>
<polygon fill="none" stroke="black" stroke-dasharray="1,5" points="8,-70 8,-195 1991,-195 1991,-70 8,-70"/>
</g>
<g id="clust3" class="cluster">
<title>cluster_AppModule_imports</title>
<polygon fill="none" stroke="black" points="473,-78 473,-130 1983,-130 1983,-78 473,-78"/>
</g>
<g id="clust6" class="cluster">
<title>cluster_AppModule_providers</title>
<polygon fill="none" stroke="black" points="16,-78 16,-130 465,-130 465,-78 16,-78"/>
</g>
<!-- AppointmentModule -->
<g id="node1" class="node">
<title>AppointmentModule</title>
<polygon fill="#8dd3c7" stroke="black" points="1974.93,-122 1971.93,-126 1950.93,-126 1947.93,-122 1841.07,-122 1841.07,-86 1974.93,-86 1974.93,-122"/>
<text text-anchor="middle" x="1908" y="-99.8" font-family="Times,serif" font-size="14.00">AppointmentModule</text>
</g>
<!-- AppModule -->
<g id="node12" class="node">
<title>AppModule</title>
<polygon fill="#8dd3c7" stroke="black" points="993.66,-187 990.66,-191 969.66,-191 966.66,-187 910.34,-187 910.34,-151 993.66,-151 993.66,-187"/>
<text text-anchor="middle" x="952" y="-164.8" font-family="Times,serif" font-size="14.00">AppModule</text>
</g>
<!-- AppointmentModule&#45;&gt;AppModule -->
<g id="edge1" class="edge">
<title>AppointmentModule&#45;&gt;AppModule</title>
<path fill="none" stroke="black" d="M1908,-122.09C1908,-145.13 1908,-182 1908,-182 1908,-182 1003.69,-182 1003.69,-182"/>
<polygon fill="black" stroke="black" points="1003.69,-178.5 993.69,-182 1003.69,-185.5 1003.69,-178.5"/>
</g>
<!-- CooperativeModule -->
<g id="node2" class="node">
<title>CooperativeModule</title>
<polygon fill="#8dd3c7" stroke="black" points="1822.97,-122 1819.97,-126 1798.97,-126 1795.97,-122 1695.03,-122 1695.03,-86 1822.97,-86 1822.97,-122"/>
<text text-anchor="middle" x="1759" y="-99.8" font-family="Times,serif" font-size="14.00">CooperativeModule</text>
</g>
<!-- CooperativeModule&#45;&gt;AppModule -->
<g id="edge2" class="edge">
<title>CooperativeModule&#45;&gt;AppModule</title>
<path fill="none" stroke="black" d="M1759,-122.04C1759,-143.66 1759,-177 1759,-177 1759,-177 1003.69,-177 1003.69,-177"/>
<polygon fill="black" stroke="black" points="1003.69,-173.5 993.69,-177 1003.69,-180.5 1003.69,-173.5"/>
</g>
<!-- CropModule -->
<g id="node3" class="node">
<title>CropModule</title>
<polygon fill="#8dd3c7" stroke="black" points="1676.55,-122 1673.55,-126 1652.55,-126 1649.55,-122 1589.45,-122 1589.45,-86 1676.55,-86 1676.55,-122"/>
<text text-anchor="middle" x="1633" y="-99.8" font-family="Times,serif" font-size="14.00">CropModule</text>
</g>
<!-- CropModule&#45;&gt;AppModule -->
<g id="edge3" class="edge">
<title>CropModule&#45;&gt;AppModule</title>
<path fill="none" stroke="black" d="M1633,-122.22C1633,-142.37 1633,-172 1633,-172 1633,-172 1003.83,-172 1003.83,-172"/>
<polygon fill="black" stroke="black" points="1003.83,-168.5 993.83,-172 1003.83,-175.5 1003.83,-168.5"/>
</g>
<!-- ExtensionWorkerModule -->
<g id="node4" class="node">
<title>ExtensionWorkerModule</title>
<polygon fill="#8dd3c7" stroke="black" points="1571.29,-122 1568.29,-126 1547.29,-126 1544.29,-122 1412.71,-122 1412.71,-86 1571.29,-86 1571.29,-122"/>
<text text-anchor="middle" x="1492" y="-99.8" font-family="Times,serif" font-size="14.00">ExtensionWorkerModule</text>
</g>
<!-- ExtensionWorkerModule&#45;&gt;AppModule -->
<g id="edge4" class="edge">
<title>ExtensionWorkerModule&#45;&gt;AppModule</title>
<path fill="none" stroke="black" d="M1492,-122.22C1492,-140.83 1492,-167 1492,-167 1492,-167 1003.92,-167 1003.92,-167"/>
<polygon fill="black" stroke="black" points="1003.92,-163.5 993.92,-167 1003.92,-170.5 1003.92,-163.5"/>
</g>
<!-- InterventionModule -->
<g id="node5" class="node">
<title>InterventionModule</title>
<polygon fill="#8dd3c7" stroke="black" points="1394.97,-122 1391.97,-126 1370.97,-126 1367.97,-122 1267.03,-122 1267.03,-86 1394.97,-86 1394.97,-122"/>
<text text-anchor="middle" x="1331" y="-99.8" font-family="Times,serif" font-size="14.00">InterventionModule</text>
</g>
<!-- InterventionModule&#45;&gt;AppModule -->
<g id="edge5" class="edge">
<title>InterventionModule&#45;&gt;AppModule</title>
<path fill="none" stroke="black" d="M1331,-122.03C1331,-139.06 1331,-162 1331,-162 1331,-162 1004.01,-162 1004.01,-162"/>
<polygon fill="black" stroke="black" points="1004.01,-158.5 994.01,-162 1004.01,-165.5 1004.01,-158.5"/>
</g>
<!-- LocalgovernmentModule -->
<g id="node6" class="node">
<title>LocalgovernmentModule</title>
<polygon fill="#8dd3c7" stroke="black" points="1249.29,-122 1246.29,-126 1225.29,-126 1222.29,-122 1090.71,-122 1090.71,-86 1249.29,-86 1249.29,-122"/>
<text text-anchor="middle" x="1170" y="-99.8" font-family="Times,serif" font-size="14.00">LocalgovernmentModule</text>
</g>
<!-- LocalgovernmentModule&#45;&gt;AppModule -->
<g id="edge6" class="edge">
<title>LocalgovernmentModule&#45;&gt;AppModule</title>
<path fill="none" stroke="black" d="M1170,-122.24C1170,-137.57 1170,-157 1170,-157 1170,-157 1003.77,-157 1003.77,-157"/>
<polygon fill="black" stroke="black" points="1003.77,-153.5 993.77,-157 1003.77,-160.5 1003.77,-153.5"/>
</g>
<!-- MilestoneModule -->
<g id="node7" class="node">
<title>MilestoneModule</title>
<polygon fill="#8dd3c7" stroke="black" points="1072.54,-122 1069.54,-126 1048.54,-126 1045.54,-122 957.46,-122 957.46,-86 1072.54,-86 1072.54,-122"/>
<text text-anchor="middle" x="1015" y="-99.8" font-family="Times,serif" font-size="14.00">MilestoneModule</text>
</g>
<!-- MilestoneModule&#45;&gt;AppModule -->
<g id="edge7" class="edge">
<title>MilestoneModule&#45;&gt;AppModule</title>
<path fill="none" stroke="black" d="M975.53,-122.11C975.53,-122.11 975.53,-140.99 975.53,-140.99"/>
<polygon fill="black" stroke="black" points="972.03,-140.99 975.53,-150.99 979.03,-140.99 972.03,-140.99"/>
</g>
<!-- ProfileModule -->
<g id="node8" class="node">
<title>ProfileModule</title>
<polygon fill="#8dd3c7" stroke="black" points="938.65,-122 935.65,-126 914.65,-126 911.65,-122 841.35,-122 841.35,-86 938.65,-86 938.65,-122"/>
<text text-anchor="middle" x="890" y="-99.8" font-family="Times,serif" font-size="14.00">ProfileModule</text>
</g>
<!-- ProfileModule&#45;&gt;AppModule -->
<g id="edge8" class="edge">
<title>ProfileModule&#45;&gt;AppModule</title>
<path fill="none" stroke="black" d="M924.5,-122.11C924.5,-122.11 924.5,-140.99 924.5,-140.99"/>
<polygon fill="black" stroke="black" points="921,-140.99 924.5,-150.99 928,-140.99 921,-140.99"/>
</g>
<!-- ProjectModule -->
<g id="node9" class="node">
<title>ProjectModule</title>
<polygon fill="#8dd3c7" stroke="black" points="823.7,-122 820.7,-126 799.7,-126 796.7,-122 724.3,-122 724.3,-86 823.7,-86 823.7,-122"/>
<text text-anchor="middle" x="774" y="-99.8" font-family="Times,serif" font-size="14.00">ProjectModule</text>
</g>
<!-- ProjectModule&#45;&gt;AppModule -->
<g id="edge9" class="edge">
<title>ProjectModule&#45;&gt;AppModule</title>
<path fill="none" stroke="black" d="M774,-122.24C774,-137.57 774,-157 774,-157 774,-157 900.27,-157 900.27,-157"/>
<polygon fill="black" stroke="black" points="900.27,-160.5 910.27,-157 900.27,-153.5 900.27,-160.5"/>
</g>
<!-- ReportModule -->
<g id="node10" class="node">
<title>ReportModule</title>
<polygon fill="#8dd3c7" stroke="black" points="706.65,-122 703.65,-126 682.65,-126 679.65,-122 609.35,-122 609.35,-86 706.65,-86 706.65,-122"/>
<text text-anchor="middle" x="658" y="-99.8" font-family="Times,serif" font-size="14.00">ReportModule</text>
</g>
<!-- ReportModule&#45;&gt;AppModule -->
<g id="edge10" class="edge">
<title>ReportModule&#45;&gt;AppModule</title>
<path fill="none" stroke="black" d="M658,-122.03C658,-139.06 658,-162 658,-162 658,-162 900.19,-162 900.19,-162"/>
<polygon fill="black" stroke="black" points="900.19,-165.5 910.19,-162 900.19,-158.5 900.19,-165.5"/>
</g>
<!-- StatisticsModule -->
<g id="node11" class="node">
<title>StatisticsModule</title>
<polygon fill="#8dd3c7" stroke="black" points="591.1,-122 588.1,-126 567.1,-126 564.1,-122 480.9,-122 480.9,-86 591.1,-86 591.1,-122"/>
<text text-anchor="middle" x="536" y="-99.8" font-family="Times,serif" font-size="14.00">StatisticsModule</text>
</g>
<!-- StatisticsModule&#45;&gt;AppModule -->
<g id="edge11" class="edge">
<title>StatisticsModule&#45;&gt;AppModule</title>
<path fill="none" stroke="black" d="M536,-122.22C536,-140.83 536,-167 536,-167 536,-167 900.21,-167 900.21,-167"/>
<polygon fill="black" stroke="black" points="900.21,-170.5 910.21,-167 900.21,-163.5 900.21,-170.5"/>
</g>
<!-- AuthService -->
<g id="node13" class="node">
<title>AuthService</title>
<ellipse fill="#fdb462" stroke="black" cx="398" cy="-104" rx="59.11" ry="18"/>
<text text-anchor="middle" x="398" y="-99.8" font-family="Times,serif" font-size="14.00">AuthService</text>
</g>
<!-- AuthService&#45;&gt;AppModule -->
<g id="edge12" class="edge">
<title>AuthService&#45;&gt;AppModule</title>
<path fill="none" stroke="black" d="M398,-122.22C398,-142.37 398,-172 398,-172 398,-172 899.91,-172 899.91,-172"/>
<polygon fill="black" stroke="black" points="899.91,-175.5 909.91,-172 899.91,-168.5 899.91,-175.5"/>
</g>
<!-- LolGovService -->
<g id="node14" class="node">
<title>LolGovService</title>
<ellipse fill="#fdb462" stroke="black" cx="251" cy="-104" rx="70.06" ry="18"/>
<text text-anchor="middle" x="251" y="-99.8" font-family="Times,serif" font-size="14.00">LolGovService</text>
</g>
<!-- LolGovService&#45;&gt;AppModule -->
<g id="edge13" class="edge">
<title>LolGovService&#45;&gt;AppModule</title>
<path fill="none" stroke="black" d="M251,-122.04C251,-143.66 251,-177 251,-177 251,-177 900.25,-177 900.25,-177"/>
<polygon fill="black" stroke="black" points="900.25,-180.5 910.25,-177 900.25,-173.5 900.25,-180.5"/>
</g>
<!-- WorkerService -->
<g id="node15" class="node">
<title>WorkerService</title>
<ellipse fill="#fdb462" stroke="black" cx="93" cy="-104" rx="69.46" ry="18"/>
<text text-anchor="middle" x="93" y="-99.8" font-family="Times,serif" font-size="14.00">WorkerService</text>
</g>
<!-- WorkerService&#45;&gt;AppModule -->
<g id="edge14" class="edge">
<title>WorkerService&#45;&gt;AppModule</title>
<path fill="none" stroke="black" d="M93,-122.09C93,-145.13 93,-182 93,-182 93,-182 900.28,-182 900.28,-182"/>
<polygon fill="black" stroke="black" points="900.28,-185.5 910.28,-182 900.28,-178.5 900.28,-185.5"/>
</g>
</g>
</svg>
