<?xml version="1.0" encoding="UTF-8" standalone="no"?>
<!DOCTYPE svg PUBLIC "-//W3C//DTD SVG 1.1//EN"
 "http://www.w3.org/Graphics/SVG/1.1/DTD/svg11.dtd">
<!-- Generated by graphviz version 2.47.0 (20210316.0004)
 -->
<!-- Title: dependencies Pages: 1 -->
<svg width="973pt" height="211pt"
 viewBox="0.00 0.00 973.00 211.00" xmlns="http://www.w3.org/2000/svg" xmlns:xlink="http://www.w3.org/1999/xlink">
<g id="graph0" class="graph" transform="scale(1 1) rotate(0) translate(4 207)">
<title>dependencies</title>
<polygon fill="white" stroke="transparent" points="-4,4 -4,-207 969,-207 969,4 -4,4"/>
<text text-anchor="start" x="461.51" y="-42.4" font-family="Times-12" font-weight="bold" font-size="14.00">Legend</text>
<polygon fill="#ffffb3" stroke="transparent" points="248.5,-10 248.5,-30 268.5,-30 268.5,-10 248.5,-10"/>
<text text-anchor="start" x="272.13" y="-15.4" font-family="Times-12" font-size="14.00"> &#160;Declarations</text>
<polygon fill="#8dd3c7" stroke="transparent" points="361.5,-10 361.5,-30 381.5,-30 381.5,-10 361.5,-10"/>
<text text-anchor="start" x="385.23" y="-15.4" font-family="Times-12" font-size="14.00"> &#160;Module</text>
<polygon fill="#80b1d3" stroke="transparent" points="447.5,-10 447.5,-30 467.5,-30 467.5,-10 447.5,-10"/>
<text text-anchor="start" x="471.28" y="-15.4" font-family="Times-12" font-size="14.00"> &#160;Bootstrap</text>
<polygon fill="#fdb462" stroke="transparent" points="544.5,-10 544.5,-30 564.5,-30 564.5,-10 544.5,-10"/>
<text text-anchor="start" x="568.17" y="-15.4" font-family="Times-12" font-size="14.00"> &#160;Providers</text>
<polygon fill="#fb8072" stroke="transparent" points="640.5,-10 640.5,-30 660.5,-30 660.5,-10 640.5,-10"/>
<text text-anchor="start" x="664.23" y="-15.4" font-family="Times-12" font-size="14.00"> &#160;Exports</text>
<g id="clust1" class="cluster">
<title>cluster_FarmerModule</title>
<polygon fill="none" stroke="black" stroke-dasharray="1,5" points="8,-70 8,-195 957,-195 957,-70 8,-70"/>
</g>
<g id="clust6" class="cluster">
<title>cluster_FarmerModule_providers</title>
<polygon fill="none" stroke="black" points="96,-78 96,-130 949,-130 949,-78 96,-78"/>
</g>
<g id="clust3" class="cluster">
<title>cluster_FarmerModule_imports</title>
<polygon fill="none" stroke="black" points="16,-78 16,-130 88,-130 88,-78 16,-78"/>
</g>
<!-- Farmer -->
<g id="node1" class="node">
<title>Farmer</title>
<polygon fill="#8dd3c7" stroke="black" points="80.43,-122 77.43,-126 56.43,-126 53.43,-122 23.57,-122 23.57,-86 80.43,-86 80.43,-122"/>
<text text-anchor="middle" x="52" y="-99.8" font-family="Times,serif" font-size="14.00">Farmer</text>
</g>
<!-- FarmerModule -->
<g id="node2" class="node">
<title>FarmerModule</title>
<polygon fill="#8dd3c7" stroke="black" points="512.97,-187 509.97,-191 488.97,-191 485.97,-187 413.03,-187 413.03,-151 512.97,-151 512.97,-187"/>
<text text-anchor="middle" x="463" y="-164.8" font-family="Times,serif" font-size="14.00">FarmerModule</text>
</g>
<!-- Farmer&#45;&gt;FarmerModule -->
<g id="edge1" class="edge">
<title>Farmer&#45;&gt;FarmerModule</title>
<path fill="none" stroke="black" d="M52,-122.29C52,-144.21 52,-178 52,-178 52,-178 403.01,-178 403.01,-178"/>
<polygon fill="black" stroke="black" points="403.01,-181.5 413.01,-178 403.01,-174.5 403.01,-181.5"/>
</g>
<!-- AdminService -->
<g id="node3" class="node">
<title>AdminService</title>
<ellipse fill="#fdb462" stroke="black" cx="874" cy="-104" rx="66.63" ry="18"/>
<text text-anchor="middle" x="874" y="-99.8" font-family="Times,serif" font-size="14.00">AdminService</text>
</g>
<!-- AdminService&#45;&gt;FarmerModule -->
<g id="edge2" class="edge">
<title>AdminService&#45;&gt;FarmerModule</title>
<path fill="none" stroke="black" d="M874,-122.29C874,-144.21 874,-178 874,-178 874,-178 522.99,-178 522.99,-178"/>
<polygon fill="black" stroke="black" points="522.99,-174.5 512.99,-178 522.99,-181.5 522.99,-174.5"/>
</g>
<!-- AuthService -->
<g id="node4" class="node">
<title>AuthService</title>
<ellipse fill="#fdb462" stroke="black" cx="730" cy="-104" rx="59.11" ry="18"/>
<text text-anchor="middle" x="730" y="-99.8" font-family="Times,serif" font-size="14.00">AuthService</text>
</g>
<!-- AuthService&#45;&gt;FarmerModule -->
<g id="edge3" class="edge">
<title>AuthService&#45;&gt;FarmerModule</title>
<path fill="none" stroke="black" d="M730,-122.11C730,-141.34 730,-169 730,-169 730,-169 523.22,-169 523.22,-169"/>
<polygon fill="black" stroke="black" points="523.22,-165.5 513.22,-169 523.22,-172.5 523.22,-165.5"/>
</g>
<!-- DbService -->
<g id="node5" class="node">
<title>DbService</title>
<ellipse fill="#fdb462" stroke="black" cx="601" cy="-104" rx="51.58" ry="18"/>
<text text-anchor="middle" x="601" y="-99.8" font-family="Times,serif" font-size="14.00">DbService</text>
</g>
<!-- DbService&#45;&gt;FarmerModule -->
<g id="edge4" class="edge">
<title>DbService&#45;&gt;FarmerModule</title>
<path fill="none" stroke="black" d="M601,-122.03C601,-138.4 601,-160 601,-160 601,-160 523.21,-160 523.21,-160"/>
<polygon fill="black" stroke="black" points="523.21,-156.5 513.21,-160 523.21,-163.5 523.21,-156.5"/>
</g>
<!-- FarmerService -->
<g id="node6" class="node">
<title>FarmerService</title>
<ellipse fill="#fdb462" stroke="black" cx="463" cy="-104" rx="67.75" ry="18"/>
<text text-anchor="middle" x="463" y="-99.8" font-family="Times,serif" font-size="14.00">FarmerService</text>
</g>
<!-- FarmerService&#45;&gt;FarmerModule -->
<g id="edge5" class="edge">
<title>FarmerService&#45;&gt;FarmerModule</title>
<path fill="none" stroke="black" d="M463,-122.11C463,-122.11 463,-140.99 463,-140.99"/>
<polygon fill="black" stroke="black" points="459.5,-140.99 463,-150.99 466.5,-140.99 459.5,-140.99"/>
</g>
<!-- MailService -->
<g id="node7" class="node">
<title>MailService</title>
<ellipse fill="#fdb462" stroke="black" cx="319" cy="-104" rx="58.46" ry="18"/>
<text text-anchor="middle" x="319" y="-99.8" font-family="Times,serif" font-size="14.00">MailService</text>
</g>
<!-- MailService&#45;&gt;FarmerModule -->
<g id="edge6" class="edge">
<title>MailService&#45;&gt;FarmerModule</title>
<path fill="none" stroke="black" d="M319,-122.03C319,-138.4 319,-160 319,-160 319,-160 402.64,-160 402.64,-160"/>
<polygon fill="black" stroke="black" points="402.64,-163.5 412.64,-160 402.64,-156.5 402.64,-163.5"/>
</g>
<!-- WorkerService -->
<g id="node8" class="node">
<title>WorkerService</title>
<ellipse fill="#fdb462" stroke="black" cx="173" cy="-104" rx="69.46" ry="18"/>
<text text-anchor="middle" x="173" y="-99.8" font-family="Times,serif" font-size="14.00">WorkerService</text>
</g>
<!-- WorkerService&#45;&gt;FarmerModule -->
<g id="edge7" class="edge">
<title>WorkerService&#45;&gt;FarmerModule</title>
<path fill="none" stroke="black" d="M173,-122.11C173,-141.34 173,-169 173,-169 173,-169 402.82,-169 402.82,-169"/>
<polygon fill="black" stroke="black" points="402.82,-172.5 412.82,-169 402.82,-165.5 402.82,-172.5"/>
</g>
</g>
</svg>
