<?xml version="1.0" encoding="UTF-8" standalone="no"?>
<!DOCTYPE svg PUBLIC "-//W3C//DTD SVG 1.1//EN"
 "http://www.w3.org/Graphics/SVG/1.1/DTD/svg11.dtd">
<!-- Generated by graphviz version 2.47.0 (20210316.0004)
 -->
<!-- Title: dependencies Pages: 1 -->
<svg width="504pt" height="211pt"
 viewBox="0.00 0.00 504.00 211.00" xmlns="http://www.w3.org/2000/svg" xmlns:xlink="http://www.w3.org/1999/xlink">
<g id="graph0" class="graph" transform="scale(1 1) rotate(0) translate(4 207)">
<title>dependencies</title>
<polygon fill="white" stroke="transparent" points="-4,4 -4,-207 500,-207 500,4 -4,4"/>
<text text-anchor="start" x="227.01" y="-42.4" font-family="Times-12" font-weight="bold" font-size="14.00">Legend</text>
<polygon fill="#ffffb3" stroke="transparent" points="14,-10 14,-30 34,-30 34,-10 14,-10"/>
<text text-anchor="start" x="37.63" y="-15.4" font-family="Times-12" font-size="14.00"> &#160;Declarations</text>
<polygon fill="#8dd3c7" stroke="transparent" points="127,-10 127,-30 147,-30 147,-10 127,-10"/>
<text text-anchor="start" x="150.73" y="-15.4" font-family="Times-12" font-size="14.00"> &#160;Module</text>
<polygon fill="#80b1d3" stroke="transparent" points="213,-10 213,-30 233,-30 233,-10 213,-10"/>
<text text-anchor="start" x="236.78" y="-15.4" font-family="Times-12" font-size="14.00"> &#160;Bootstrap</text>
<polygon fill="#fdb462" stroke="transparent" points="310,-10 310,-30 330,-30 330,-10 310,-10"/>
<text text-anchor="start" x="333.67" y="-15.4" font-family="Times-12" font-size="14.00"> &#160;Providers</text>
<polygon fill="#fb8072" stroke="transparent" points="406,-10 406,-30 426,-30 426,-10 406,-10"/>
<text text-anchor="start" x="429.73" y="-15.4" font-family="Times-12" font-size="14.00"> &#160;Exports</text>
<g id="clust1" class="cluster">
<title>cluster_VisitModule</title>
<polygon fill="none" stroke="black" stroke-dasharray="1,5" points="112,-70 112,-195 384,-195 384,-70 112,-70"/>
</g>
<g id="clust6" class="cluster">
<title>cluster_VisitModule_providers</title>
<polygon fill="none" stroke="black" points="120,-78 120,-130 376,-130 376,-78 120,-78"/>
</g>
<!-- DbService -->
<g id="node1" class="node">
<title>DbService</title>
<ellipse fill="#fdb462" stroke="black" cx="316" cy="-104" rx="51.58" ry="18"/>
<text text-anchor="middle" x="316" y="-99.8" font-family="Times,serif" font-size="14.00">DbService</text>
</g>
<!-- VisitModule -->
<g id="node3" class="node">
<title>VisitModule</title>
<polygon fill="#8dd3c7" stroke="black" points="294.27,-187 291.27,-191 270.27,-191 267.27,-187 207.73,-187 207.73,-151 294.27,-151 294.27,-187"/>
<text text-anchor="middle" x="251" y="-164.8" font-family="Times,serif" font-size="14.00">VisitModule</text>
</g>
<!-- DbService&#45;&gt;VisitModule -->
<g id="edge1" class="edge">
<title>DbService&#45;&gt;VisitModule</title>
<path fill="none" stroke="black" d="M279.3,-116.84C279.3,-116.84 279.3,-140.52 279.3,-140.52"/>
<polygon fill="black" stroke="black" points="275.8,-140.52 279.3,-150.52 282.8,-140.52 275.8,-140.52"/>
</g>
<!-- VisitService -->
<g id="node2" class="node">
<title>VisitService</title>
<ellipse fill="#fdb462" stroke="black" cx="187" cy="-104" rx="58.54" ry="18"/>
<text text-anchor="middle" x="187" y="-99.8" font-family="Times,serif" font-size="14.00">VisitService</text>
</g>
<!-- VisitService&#45;&gt;VisitModule -->
<g id="edge2" class="edge">
<title>VisitService&#45;&gt;VisitModule</title>
<path fill="none" stroke="black" d="M226.69,-117.47C226.69,-117.47 226.69,-140.86 226.69,-140.86"/>
<polygon fill="black" stroke="black" points="223.19,-140.86 226.69,-150.86 230.19,-140.86 223.19,-140.86"/>
</g>
</g>
</svg>
