<?xml version="1.0" encoding="UTF-8" standalone="no"?>
<!DOCTYPE svg PUBLIC "-//W3C//DTD SVG 1.1//EN"
 "http://www.w3.org/Graphics/SVG/1.1/DTD/svg11.dtd">
<!-- Generated by graphviz version 2.47.0 (20210316.0004)
 -->
<!-- Title: dependencies Pages: 1 -->
<svg width="3439pt" height="211pt"
 viewBox="0.00 0.00 3439.00 211.00" xmlns="http://www.w3.org/2000/svg" xmlns:xlink="http://www.w3.org/1999/xlink">
<g id="graph0" class="graph" transform="scale(1 1) rotate(0) translate(4 207)">
<title>dependencies</title>
<polygon fill="white" stroke="transparent" points="-4,4 -4,-207 3435,-207 3435,4 -4,4"/>
<text text-anchor="start" x="1694.51" y="-42.4" font-family="Times-12" font-weight="bold" font-size="14.00">Legend</text>
<polygon fill="#ffffb3" stroke="transparent" points="1481.5,-10 1481.5,-30 1501.5,-30 1501.5,-10 1481.5,-10"/>
<text text-anchor="start" x="1505.13" y="-15.4" font-family="Times-12" font-size="14.00"> &#160;Declarations</text>
<polygon fill="#8dd3c7" stroke="transparent" points="1594.5,-10 1594.5,-30 1614.5,-30 1614.5,-10 1594.5,-10"/>
<text text-anchor="start" x="1618.23" y="-15.4" font-family="Times-12" font-size="14.00"> &#160;Module</text>
<polygon fill="#80b1d3" stroke="transparent" points="1680.5,-10 1680.5,-30 1700.5,-30 1700.5,-10 1680.5,-10"/>
<text text-anchor="start" x="1704.28" y="-15.4" font-family="Times-12" font-size="14.00"> &#160;Bootstrap</text>
<polygon fill="#fdb462" stroke="transparent" points="1777.5,-10 1777.5,-30 1797.5,-30 1797.5,-10 1777.5,-10"/>
<text text-anchor="start" x="1801.17" y="-15.4" font-family="Times-12" font-size="14.00"> &#160;Providers</text>
<polygon fill="#fb8072" stroke="transparent" points="1873.5,-10 1873.5,-30 1893.5,-30 1893.5,-10 1873.5,-10"/>
<text text-anchor="start" x="1897.23" y="-15.4" font-family="Times-12" font-size="14.00"> &#160;Exports</text>
<g id="clust1" class="cluster">
<title>cluster_ExtensionWorkerModule</title>
<polygon fill="none" stroke="black" stroke-dasharray="1,5" points="8,-70 8,-195 3423,-195 3423,-70 8,-70"/>
</g>
<g id="clust6" class="cluster">
<title>cluster_ExtensionWorkerModule_providers</title>
<polygon fill="none" stroke="black" points="1691,-78 1691,-130 3415,-130 3415,-78 1691,-78"/>
</g>
<g id="clust3" class="cluster">
<title>cluster_ExtensionWorkerModule_imports</title>
<polygon fill="none" stroke="black" points="16,-78 16,-130 1683,-130 1683,-78 16,-78"/>
</g>
<!-- AppointmentModule -->
<g id="node1" class="node">
<title>AppointmentModule</title>
<polygon fill="#8dd3c7" stroke="black" points="1674.93,-122 1671.93,-126 1650.93,-126 1647.93,-122 1541.07,-122 1541.07,-86 1674.93,-86 1674.93,-122"/>
<text text-anchor="middle" x="1608" y="-99.8" font-family="Times,serif" font-size="14.00">AppointmentModule</text>
</g>
<!-- ExtensionWorkerModule -->
<g id="node14" class="node">
<title>ExtensionWorkerModule</title>
<polygon fill="#8dd3c7" stroke="black" points="1559.29,-187 1556.29,-191 1535.29,-191 1532.29,-187 1400.71,-187 1400.71,-151 1559.29,-151 1559.29,-187"/>
<text text-anchor="middle" x="1480" y="-164.8" font-family="Times,serif" font-size="14.00">ExtensionWorkerModule</text>
</g>
<!-- AppointmentModule&#45;&gt;ExtensionWorkerModule -->
<g id="edge1" class="edge">
<title>AppointmentModule&#45;&gt;ExtensionWorkerModule</title>
<path fill="none" stroke="black" d="M1550.21,-122.11C1550.21,-122.11 1550.21,-140.99 1550.21,-140.99"/>
<polygon fill="black" stroke="black" points="1546.72,-140.99 1550.21,-150.99 1553.72,-140.99 1546.72,-140.99"/>
</g>
<!-- AuthModule -->
<g id="node2" class="node">
<title>AuthModule</title>
<polygon fill="#8dd3c7" stroke="black" points="1523.55,-122 1520.55,-126 1499.55,-126 1496.55,-122 1436.45,-122 1436.45,-86 1523.55,-86 1523.55,-122"/>
<text text-anchor="middle" x="1480" y="-99.8" font-family="Times,serif" font-size="14.00">AuthModule</text>
</g>
<!-- AuthModule&#45;&gt;ExtensionWorkerModule -->
<g id="edge2" class="edge">
<title>AuthModule&#45;&gt;ExtensionWorkerModule</title>
<path fill="none" stroke="black" d="M1480,-122.11C1480,-122.11 1480,-140.99 1480,-140.99"/>
<polygon fill="black" stroke="black" points="1476.5,-140.99 1480,-150.99 1483.5,-140.99 1476.5,-140.99"/>
</g>
<!-- ChallengeModule -->
<g id="node3" class="node">
<title>ChallengeModule</title>
<polygon fill="#8dd3c7" stroke="black" points="1418.31,-122 1415.31,-126 1394.31,-126 1391.31,-122 1301.69,-122 1301.69,-86 1418.31,-86 1418.31,-122"/>
<text text-anchor="middle" x="1360" y="-99.8" font-family="Times,serif" font-size="14.00">ChallengeModule</text>
</g>
<!-- ChallengeModule&#45;&gt;ExtensionWorkerModule -->
<g id="edge3" class="edge">
<title>ChallengeModule&#45;&gt;ExtensionWorkerModule</title>
<path fill="none" stroke="black" d="M1409.5,-122.11C1409.5,-122.11 1409.5,-140.99 1409.5,-140.99"/>
<polygon fill="black" stroke="black" points="1406,-140.99 1409.5,-150.99 1413,-140.99 1406,-140.99"/>
</g>
<!-- CooperativeModule -->
<g id="node4" class="node">
<title>CooperativeModule</title>
<polygon fill="#8dd3c7" stroke="black" points="1283.97,-122 1280.97,-126 1259.97,-126 1256.97,-122 1156.03,-122 1156.03,-86 1283.97,-86 1283.97,-122"/>
<text text-anchor="middle" x="1220" y="-99.8" font-family="Times,serif" font-size="14.00">CooperativeModule</text>
</g>
<!-- CooperativeModule&#45;&gt;ExtensionWorkerModule -->
<g id="edge4" class="edge">
<title>CooperativeModule&#45;&gt;ExtensionWorkerModule</title>
<path fill="none" stroke="black" d="M1220,-122.05C1220,-136.37 1220,-154 1220,-154 1220,-154 1390.58,-154 1390.58,-154"/>
<polygon fill="black" stroke="black" points="1390.58,-157.5 1400.58,-154 1390.58,-150.5 1390.58,-157.5"/>
</g>
<!-- CropModule -->
<g id="node5" class="node">
<title>CropModule</title>
<polygon fill="#8dd3c7" stroke="black" points="1137.55,-122 1134.55,-126 1113.55,-126 1110.55,-122 1050.45,-122 1050.45,-86 1137.55,-86 1137.55,-122"/>
<text text-anchor="middle" x="1094" y="-99.8" font-family="Times,serif" font-size="14.00">CropModule</text>
</g>
<!-- CropModule&#45;&gt;ExtensionWorkerModule -->
<g id="edge5" class="edge">
<title>CropModule&#45;&gt;ExtensionWorkerModule</title>
<path fill="none" stroke="black" d="M1094,-122.24C1094,-137.57 1094,-157 1094,-157 1094,-157 1390.49,-157 1390.49,-157"/>
<polygon fill="black" stroke="black" points="1390.49,-160.5 1400.49,-157 1390.49,-153.5 1390.49,-160.5"/>
</g>
<!-- FarmerModule -->
<g id="node6" class="node">
<title>FarmerModule</title>
<polygon fill="#8dd3c7" stroke="black" points="1031.97,-122 1028.97,-126 1007.97,-126 1004.97,-122 932.03,-122 932.03,-86 1031.97,-86 1031.97,-122"/>
<text text-anchor="middle" x="982" y="-99.8" font-family="Times,serif" font-size="14.00">FarmerModule</text>
</g>
<!-- FarmerModule&#45;&gt;ExtensionWorkerModule -->
<g id="edge6" class="edge">
<title>FarmerModule&#45;&gt;ExtensionWorkerModule</title>
<path fill="none" stroke="black" d="M982,-122.03C982,-138.4 982,-160 982,-160 982,-160 1390.82,-160 1390.82,-160"/>
<polygon fill="black" stroke="black" points="1390.82,-163.5 1400.82,-160 1390.82,-156.5 1390.82,-163.5"/>
</g>
<!-- InterventionModule -->
<g id="node7" class="node">
<title>InterventionModule</title>
<polygon fill="#8dd3c7" stroke="black" points="913.97,-122 910.97,-126 889.97,-126 886.97,-122 786.03,-122 786.03,-86 913.97,-86 913.97,-122"/>
<text text-anchor="middle" x="850" y="-99.8" font-family="Times,serif" font-size="14.00">InterventionModule</text>
</g>
<!-- InterventionModule&#45;&gt;ExtensionWorkerModule -->
<g id="edge7" class="edge">
<title>InterventionModule&#45;&gt;ExtensionWorkerModule</title>
<path fill="none" stroke="black" d="M871.33,-122.02C871.33,-139.37 871.33,-163 871.33,-163 871.33,-163 1390.74,-163 1390.74,-163"/>
<polygon fill="black" stroke="black" points="1390.74,-166.5 1400.74,-163 1390.74,-159.5 1390.74,-166.5"/>
</g>
<!-- InterventionModule&#45;&gt;ExtensionWorkerModule -->
<g id="edge8" class="edge">
<title>InterventionModule&#45;&gt;ExtensionWorkerModule</title>
<path fill="none" stroke="black" d="M828.67,-122.22C828.67,-140.83 828.67,-167 828.67,-167 828.67,-167 1390.79,-167 1390.79,-167"/>
<polygon fill="black" stroke="black" points="1390.79,-170.5 1400.79,-167 1390.79,-163.5 1390.79,-170.5"/>
</g>
<!-- LocalgovernmentModule -->
<g id="node8" class="node">
<title>LocalgovernmentModule</title>
<polygon fill="#8dd3c7" stroke="black" points="768.29,-122 765.29,-126 744.29,-126 741.29,-122 609.71,-122 609.71,-86 768.29,-86 768.29,-122"/>
<text text-anchor="middle" x="689" y="-99.8" font-family="Times,serif" font-size="14.00">LocalgovernmentModule</text>
</g>
<!-- LocalgovernmentModule&#45;&gt;ExtensionWorkerModule -->
<g id="edge9" class="edge">
<title>LocalgovernmentModule&#45;&gt;ExtensionWorkerModule</title>
<path fill="none" stroke="black" d="M689,-122.11C689,-141.34 689,-169 689,-169 689,-169 1390.53,-169 1390.53,-169"/>
<polygon fill="black" stroke="black" points="1390.53,-172.5 1400.53,-169 1390.53,-165.5 1390.53,-172.5"/>
</g>
<!-- MilestoneModule -->
<g id="node9" class="node">
<title>MilestoneModule</title>
<polygon fill="#8dd3c7" stroke="black" points="591.54,-122 588.54,-126 567.54,-126 564.54,-122 476.46,-122 476.46,-86 591.54,-86 591.54,-122"/>
<text text-anchor="middle" x="534" y="-99.8" font-family="Times,serif" font-size="14.00">MilestoneModule</text>
</g>
<!-- MilestoneModule&#45;&gt;ExtensionWorkerModule -->
<g id="edge10" class="edge">
<title>MilestoneModule&#45;&gt;ExtensionWorkerModule</title>
<path fill="none" stroke="black" d="M534,-122.22C534,-142.37 534,-172 534,-172 534,-172 1390.57,-172 1390.57,-172"/>
<polygon fill="black" stroke="black" points="1390.57,-175.5 1400.57,-172 1390.57,-168.5 1390.57,-175.5"/>
</g>
<!-- ProfileModule -->
<g id="node10" class="node">
<title>ProfileModule</title>
<polygon fill="#8dd3c7" stroke="black" points="457.65,-122 454.65,-126 433.65,-126 430.65,-122 360.35,-122 360.35,-86 457.65,-86 457.65,-122"/>
<text text-anchor="middle" x="409" y="-99.8" font-family="Times,serif" font-size="14.00">ProfileModule</text>
</g>
<!-- ProfileModule&#45;&gt;ExtensionWorkerModule -->
<g id="edge11" class="edge">
<title>ProfileModule&#45;&gt;ExtensionWorkerModule</title>
<path fill="none" stroke="black" d="M409,-122.28C409,-143.32 409,-175 409,-175 409,-175 1390.81,-175 1390.81,-175"/>
<polygon fill="black" stroke="black" points="1390.81,-178.5 1400.81,-175 1390.81,-171.5 1390.81,-178.5"/>
</g>
<!-- ProjectModule -->
<g id="node11" class="node">
<title>ProjectModule</title>
<polygon fill="#8dd3c7" stroke="black" points="342.7,-122 339.7,-126 318.7,-126 315.7,-122 243.3,-122 243.3,-86 342.7,-86 342.7,-122"/>
<text text-anchor="middle" x="293" y="-99.8" font-family="Times,serif" font-size="14.00">ProjectModule</text>
</g>
<!-- ProjectModule&#45;&gt;ExtensionWorkerModule -->
<g id="edge12" class="edge">
<title>ProjectModule&#45;&gt;ExtensionWorkerModule</title>
<path fill="none" stroke="black" d="M293,-122.29C293,-144.21 293,-178 293,-178 293,-178 1390.74,-178 1390.74,-178"/>
<polygon fill="black" stroke="black" points="1390.74,-181.5 1400.74,-178 1390.74,-174.5 1390.74,-181.5"/>
</g>
<!-- ReportModule -->
<g id="node12" class="node">
<title>ReportModule</title>
<polygon fill="#8dd3c7" stroke="black" points="225.65,-122 222.65,-126 201.65,-126 198.65,-122 128.35,-122 128.35,-86 225.65,-86 225.65,-122"/>
<text text-anchor="middle" x="177" y="-99.8" font-family="Times,serif" font-size="14.00">ReportModule</text>
</g>
<!-- ReportModule&#45;&gt;ExtensionWorkerModule -->
<g id="edge13" class="edge">
<title>ReportModule&#45;&gt;ExtensionWorkerModule</title>
<path fill="none" stroke="black" d="M177,-122.09C177,-145.13 177,-182 177,-182 177,-182 1390.45,-182 1390.45,-182"/>
<polygon fill="black" stroke="black" points="1390.45,-185.5 1400.45,-182 1390.45,-178.5 1390.45,-185.5"/>
</g>
<!-- VisitModule -->
<g id="node13" class="node">
<title>VisitModule</title>
<polygon fill="#8dd3c7" stroke="black" points="110.27,-122 107.27,-126 86.27,-126 83.27,-122 23.73,-122 23.73,-86 110.27,-86 110.27,-122"/>
<text text-anchor="middle" x="67" y="-99.8" font-family="Times,serif" font-size="14.00">VisitModule</text>
</g>
<!-- VisitModule&#45;&gt;ExtensionWorkerModule -->
<g id="edge14" class="edge">
<title>VisitModule&#45;&gt;ExtensionWorkerModule</title>
<path fill="none" stroke="black" d="M67,-122.15C67,-145.76 67,-184 67,-184 67,-184 1390.75,-184 1390.75,-184"/>
<polygon fill="black" stroke="black" points="1390.75,-187.5 1400.75,-184 1390.75,-180.5 1390.75,-187.5"/>
</g>
<!-- AdminService -->
<g id="node15" class="node">
<title>AdminService</title>
<ellipse fill="#fdb462" stroke="black" cx="3340" cy="-104" rx="66.63" ry="18"/>
<text text-anchor="middle" x="3340" y="-99.8" font-family="Times,serif" font-size="14.00">AdminService</text>
</g>
<!-- AdminService&#45;&gt;ExtensionWorkerModule -->
<g id="edge15" class="edge">
<title>AdminService&#45;&gt;ExtensionWorkerModule</title>
<path fill="none" stroke="black" d="M3340,-122.15C3340,-145.76 3340,-184 3340,-184 3340,-184 1569.33,-184 1569.33,-184"/>
<polygon fill="black" stroke="black" points="1569.33,-180.5 1559.33,-184 1569.33,-187.5 1569.33,-180.5"/>
</g>
<!-- AppointmentService -->
<g id="node16" class="node">
<title>AppointmentService</title>
<ellipse fill="#fdb462" stroke="black" cx="3164" cy="-104" rx="90.91" ry="18"/>
<text text-anchor="middle" x="3164" y="-99.8" font-family="Times,serif" font-size="14.00">AppointmentService</text>
</g>
<!-- AppointmentService&#45;&gt;ExtensionWorkerModule -->
<g id="edge16" class="edge">
<title>AppointmentService&#45;&gt;ExtensionWorkerModule</title>
<path fill="none" stroke="black" d="M3164,-122.09C3164,-145.13 3164,-182 3164,-182 3164,-182 1569.24,-182 1569.24,-182"/>
<polygon fill="black" stroke="black" points="1569.24,-178.5 1559.24,-182 1569.24,-185.5 1569.24,-178.5"/>
</g>
<!-- AuthService -->
<g id="node17" class="node">
<title>AuthService</title>
<ellipse fill="#fdb462" stroke="black" cx="2996" cy="-104" rx="59.11" ry="18"/>
<text text-anchor="middle" x="2996" y="-99.8" font-family="Times,serif" font-size="14.00">AuthService</text>
</g>
<!-- AuthService&#45;&gt;ExtensionWorkerModule -->
<g id="edge17" class="edge">
<title>AuthService&#45;&gt;ExtensionWorkerModule</title>
<path fill="none" stroke="black" d="M2996,-122.29C2996,-144.21 2996,-178 2996,-178 2996,-178 1569.37,-178 1569.37,-178"/>
<polygon fill="black" stroke="black" points="1569.37,-174.5 1559.37,-178 1569.37,-181.5 1569.37,-174.5"/>
</g>
<!-- CooperativeService -->
<g id="node18" class="node">
<title>CooperativeService</title>
<ellipse fill="#fdb462" stroke="black" cx="2832" cy="-104" rx="87.38" ry="18"/>
<text text-anchor="middle" x="2832" y="-99.8" font-family="Times,serif" font-size="14.00">CooperativeService</text>
</g>
<!-- CooperativeService&#45;&gt;ExtensionWorkerModule -->
<g id="edge18" class="edge">
<title>CooperativeService&#45;&gt;ExtensionWorkerModule</title>
<path fill="none" stroke="black" d="M2832,-122.28C2832,-143.32 2832,-175 2832,-175 2832,-175 1569.53,-175 1569.53,-175"/>
<polygon fill="black" stroke="black" points="1569.53,-171.5 1559.53,-175 1569.53,-178.5 1569.53,-171.5"/>
</g>
<!-- DbService -->
<g id="node19" class="node">
<title>DbService</title>
<ellipse fill="#fdb462" stroke="black" cx="2675" cy="-104" rx="51.58" ry="18"/>
<text text-anchor="middle" x="2675" y="-99.8" font-family="Times,serif" font-size="14.00">DbService</text>
</g>
<!-- DbService&#45;&gt;ExtensionWorkerModule -->
<g id="edge19" class="edge">
<title>DbService&#45;&gt;ExtensionWorkerModule</title>
<path fill="none" stroke="black" d="M2675,-122.22C2675,-142.37 2675,-172 2675,-172 2675,-172 1569.33,-172 1569.33,-172"/>
<polygon fill="black" stroke="black" points="1569.33,-168.5 1559.33,-172 1569.33,-175.5 1569.33,-168.5"/>
</g>
<!-- FarmerService -->
<g id="node20" class="node">
<title>FarmerService</title>
<ellipse fill="#fdb462" stroke="black" cx="2537" cy="-104" rx="67.75" ry="18"/>
<text text-anchor="middle" x="2537" y="-99.8" font-family="Times,serif" font-size="14.00">FarmerService</text>
</g>
<!-- FarmerService&#45;&gt;ExtensionWorkerModule -->
<g id="edge20" class="edge">
<title>FarmerService&#45;&gt;ExtensionWorkerModule</title>
<path fill="none" stroke="black" d="M2537,-122.11C2537,-141.34 2537,-169 2537,-169 2537,-169 1569.45,-169 1569.45,-169"/>
<polygon fill="black" stroke="black" points="1569.45,-165.5 1559.45,-169 1569.45,-172.5 1569.45,-165.5"/>
</g>
<!-- MailService -->
<g id="node21" class="node">
<title>MailService</title>
<ellipse fill="#fdb462" stroke="black" cx="2393" cy="-104" rx="58.46" ry="18"/>
<text text-anchor="middle" x="2393" y="-99.8" font-family="Times,serif" font-size="14.00">MailService</text>
</g>
<!-- MailService&#45;&gt;ExtensionWorkerModule -->
<g id="edge21" class="edge">
<title>MailService&#45;&gt;ExtensionWorkerModule</title>
<path fill="none" stroke="black" d="M2393,-122.22C2393,-140.83 2393,-167 2393,-167 2393,-167 1569.43,-167 1569.43,-167"/>
<polygon fill="black" stroke="black" points="1569.43,-163.5 1559.43,-167 1569.43,-170.5 1569.43,-163.5"/>
</g>
<!-- MilestoneService -->
<g id="node22" class="node">
<title>MilestoneService</title>
<ellipse fill="#fdb462" stroke="black" cx="2238" cy="-104" rx="78.73" ry="18"/>
<text text-anchor="middle" x="2238" y="-99.8" font-family="Times,serif" font-size="14.00">MilestoneService</text>
</g>
<!-- MilestoneService&#45;&gt;ExtensionWorkerModule -->
<g id="edge22" class="edge">
<title>MilestoneService&#45;&gt;ExtensionWorkerModule</title>
<path fill="none" stroke="black" d="M2238,-122.02C2238,-139.37 2238,-163 2238,-163 2238,-163 1569.33,-163 1569.33,-163"/>
<polygon fill="black" stroke="black" points="1569.33,-159.5 1559.33,-163 1569.33,-166.5 1569.33,-159.5"/>
</g>
<!-- ProfileService -->
<g id="node23" class="node">
<title>ProfileService</title>
<ellipse fill="#fdb462" stroke="black" cx="2075" cy="-104" rx="66.05" ry="18"/>
<text text-anchor="middle" x="2075" y="-99.8" font-family="Times,serif" font-size="14.00">ProfileService</text>
</g>
<!-- ProfileService&#45;&gt;ExtensionWorkerModule -->
<g id="edge23" class="edge">
<title>ProfileService&#45;&gt;ExtensionWorkerModule</title>
<path fill="none" stroke="black" d="M2075,-122.03C2075,-138.4 2075,-160 2075,-160 2075,-160 1569.32,-160 1569.32,-160"/>
<polygon fill="black" stroke="black" points="1569.32,-156.5 1559.32,-160 1569.32,-163.5 1569.32,-156.5"/>
</g>
<!-- ProjectService -->
<g id="node24" class="node">
<title>ProjectService</title>
<ellipse fill="#fdb462" stroke="black" cx="1923" cy="-104" rx="67.19" ry="18"/>
<text text-anchor="middle" x="1923" y="-99.8" font-family="Times,serif" font-size="14.00">ProjectService</text>
</g>
<!-- ProjectService&#45;&gt;ExtensionWorkerModule -->
<g id="edge24" class="edge">
<title>ProjectService&#45;&gt;ExtensionWorkerModule</title>
<path fill="none" stroke="black" d="M1923,-122.24C1923,-137.57 1923,-157 1923,-157 1923,-157 1569.2,-157 1569.2,-157"/>
<polygon fill="black" stroke="black" points="1569.2,-153.5 1559.2,-157 1569.2,-160.5 1569.2,-153.5"/>
</g>
<!-- WorkerService -->
<g id="node25" class="node">
<title>WorkerService</title>
<ellipse fill="#fdb462" stroke="black" cx="1768" cy="-104" rx="69.46" ry="18"/>
<text text-anchor="middle" x="1768" y="-99.8" font-family="Times,serif" font-size="14.00">WorkerService</text>
</g>
<!-- WorkerService&#45;&gt;ExtensionWorkerModule -->
<g id="edge25" class="edge">
<title>WorkerService&#45;&gt;ExtensionWorkerModule</title>
<path fill="none" stroke="black" d="M1768,-122.05C1768,-136.37 1768,-154 1768,-154 1768,-154 1569.46,-154 1569.46,-154"/>
<polygon fill="black" stroke="black" points="1569.46,-150.5 1559.46,-154 1569.46,-157.5 1569.46,-150.5"/>
</g>
</g>
</svg>
