<?xml version="1.0" encoding="UTF-8" standalone="no"?>
<!DOCTYPE svg PUBLIC "-//W3C//DTD SVG 1.1//EN"
 "http://www.w3.org/Graphics/SVG/1.1/DTD/svg11.dtd">
<!-- Generated by graphviz version 2.47.0 (20210316.0004)
 -->
<!-- Title: dependencies Pages: 1 -->
<svg width="1181pt" height="211pt"
 viewBox="0.00 0.00 1181.00 211.00" xmlns="http://www.w3.org/2000/svg" xmlns:xlink="http://www.w3.org/1999/xlink">
<g id="graph0" class="graph" transform="scale(1 1) rotate(0) translate(4 207)">
<title>dependencies</title>
<polygon fill="white" stroke="transparent" points="-4,4 -4,-207 1177,-207 1177,4 -4,4"/>
<text text-anchor="start" x="565.51" y="-42.4" font-family="Times-12" font-weight="bold" font-size="14.00">Legend</text>
<polygon fill="#ffffb3" stroke="transparent" points="352.5,-10 352.5,-30 372.5,-30 372.5,-10 352.5,-10"/>
<text text-anchor="start" x="376.13" y="-15.4" font-family="Times-12" font-size="14.00"> &#160;Declarations</text>
<polygon fill="#8dd3c7" stroke="transparent" points="465.5,-10 465.5,-30 485.5,-30 485.5,-10 465.5,-10"/>
<text text-anchor="start" x="489.23" y="-15.4" font-family="Times-12" font-size="14.00"> &#160;Module</text>
<polygon fill="#80b1d3" stroke="transparent" points="551.5,-10 551.5,-30 571.5,-30 571.5,-10 551.5,-10"/>
<text text-anchor="start" x="575.28" y="-15.4" font-family="Times-12" font-size="14.00"> &#160;Bootstrap</text>
<polygon fill="#fdb462" stroke="transparent" points="648.5,-10 648.5,-30 668.5,-30 668.5,-10 648.5,-10"/>
<text text-anchor="start" x="672.17" y="-15.4" font-family="Times-12" font-size="14.00"> &#160;Providers</text>
<polygon fill="#fb8072" stroke="transparent" points="744.5,-10 744.5,-30 764.5,-30 764.5,-10 744.5,-10"/>
<text text-anchor="start" x="768.23" y="-15.4" font-family="Times-12" font-size="14.00"> &#160;Exports</text>
<g id="clust1" class="cluster">
<title>cluster_ChallengeModule</title>
<polygon fill="none" stroke="black" stroke-dasharray="1,5" points="8,-70 8,-195 1165,-195 1165,-70 8,-70"/>
</g>
<g id="clust6" class="cluster">
<title>cluster_ChallengeModule_providers</title>
<polygon fill="none" stroke="black" points="128,-78 128,-130 1157,-130 1157,-78 128,-78"/>
</g>
<g id="clust3" class="cluster">
<title>cluster_ChallengeModule_imports</title>
<polygon fill="none" stroke="black" points="16,-78 16,-130 120,-130 120,-78 16,-78"/>
</g>
<!-- AuthModule -->
<g id="node1" class="node">
<title>AuthModule</title>
<polygon fill="#8dd3c7" stroke="black" points="111.55,-122 108.55,-126 87.55,-126 84.55,-122 24.45,-122 24.45,-86 111.55,-86 111.55,-122"/>
<text text-anchor="middle" x="68" y="-99.8" font-family="Times,serif" font-size="14.00">AuthModule</text>
</g>
<!-- ChallengeModule -->
<g id="node2" class="node">
<title>ChallengeModule</title>
<polygon fill="#8dd3c7" stroke="black" points="622.31,-187 619.31,-191 598.31,-191 595.31,-187 505.69,-187 505.69,-151 622.31,-151 622.31,-187"/>
<text text-anchor="middle" x="564" y="-164.8" font-family="Times,serif" font-size="14.00">ChallengeModule</text>
</g>
<!-- AuthModule&#45;&gt;ChallengeModule -->
<g id="edge1" class="edge">
<title>AuthModule&#45;&gt;ChallengeModule</title>
<path fill="none" stroke="black" d="M68,-122.29C68,-144.21 68,-178 68,-178 68,-178 495.64,-178 495.64,-178"/>
<polygon fill="black" stroke="black" points="495.64,-181.5 505.64,-178 495.64,-174.5 495.64,-181.5"/>
</g>
<!-- AdminService -->
<g id="node3" class="node">
<title>AdminService</title>
<ellipse fill="#fdb462" stroke="black" cx="1082" cy="-104" rx="66.63" ry="18"/>
<text text-anchor="middle" x="1082" y="-99.8" font-family="Times,serif" font-size="14.00">AdminService</text>
</g>
<!-- AdminService&#45;&gt;ChallengeModule -->
<g id="edge2" class="edge">
<title>AdminService&#45;&gt;ChallengeModule</title>
<path fill="none" stroke="black" d="M1082,-122.29C1082,-144.21 1082,-178 1082,-178 1082,-178 632.16,-178 632.16,-178"/>
<polygon fill="black" stroke="black" points="632.16,-174.5 622.16,-178 632.16,-181.5 632.16,-174.5"/>
</g>
<!-- AuthService -->
<g id="node4" class="node">
<title>AuthService</title>
<ellipse fill="#fdb462" stroke="black" cx="938" cy="-104" rx="59.11" ry="18"/>
<text text-anchor="middle" x="938" y="-99.8" font-family="Times,serif" font-size="14.00">AuthService</text>
</g>
<!-- AuthService&#45;&gt;ChallengeModule -->
<g id="edge3" class="edge">
<title>AuthService&#45;&gt;ChallengeModule</title>
<path fill="none" stroke="black" d="M938,-122.11C938,-141.34 938,-169 938,-169 938,-169 632.44,-169 632.44,-169"/>
<polygon fill="black" stroke="black" points="632.44,-165.5 622.44,-169 632.44,-172.5 632.44,-165.5"/>
</g>
<!-- ChallengeService -->
<g id="node5" class="node">
<title>ChallengeService</title>
<ellipse fill="#fdb462" stroke="black" cx="782" cy="-104" rx="79.29" ry="18"/>
<text text-anchor="middle" x="782" y="-99.8" font-family="Times,serif" font-size="14.00">ChallengeService</text>
</g>
<!-- ChallengeService&#45;&gt;ChallengeModule -->
<g id="edge4" class="edge">
<title>ChallengeService&#45;&gt;ChallengeModule</title>
<path fill="none" stroke="black" d="M782,-122.03C782,-138.4 782,-160 782,-160 782,-160 632.42,-160 632.42,-160"/>
<polygon fill="black" stroke="black" points="632.42,-156.5 622.42,-160 632.42,-163.5 632.42,-156.5"/>
</g>
<!-- DbService -->
<g id="node6" class="node">
<title>DbService</title>
<ellipse fill="#fdb462" stroke="black" cx="633" cy="-104" rx="51.58" ry="18"/>
<text text-anchor="middle" x="633" y="-99.8" font-family="Times,serif" font-size="14.00">DbService</text>
</g>
<!-- DbService&#45;&gt;ChallengeModule -->
<g id="edge5" class="edge">
<title>DbService&#45;&gt;ChallengeModule</title>
<path fill="none" stroke="black" d="M601.68,-118.43C601.68,-118.43 601.68,-140.89 601.68,-140.89"/>
<polygon fill="black" stroke="black" points="598.18,-140.89 601.68,-150.89 605.18,-140.89 598.18,-140.89"/>
</g>
<!-- FarmerService -->
<g id="node7" class="node">
<title>FarmerService</title>
<ellipse fill="#fdb462" stroke="black" cx="495" cy="-104" rx="67.75" ry="18"/>
<text text-anchor="middle" x="495" y="-99.8" font-family="Times,serif" font-size="14.00">FarmerService</text>
</g>
<!-- FarmerService&#45;&gt;ChallengeModule -->
<g id="edge6" class="edge">
<title>FarmerService&#45;&gt;ChallengeModule</title>
<path fill="none" stroke="black" d="M534.36,-118.75C534.36,-118.75 534.36,-140.59 534.36,-140.59"/>
<polygon fill="black" stroke="black" points="530.86,-140.59 534.36,-150.59 537.86,-140.59 530.86,-140.59"/>
</g>
<!-- MailService -->
<g id="node8" class="node">
<title>MailService</title>
<ellipse fill="#fdb462" stroke="black" cx="351" cy="-104" rx="58.46" ry="18"/>
<text text-anchor="middle" x="351" y="-99.8" font-family="Times,serif" font-size="14.00">MailService</text>
</g>
<!-- MailService&#45;&gt;ChallengeModule -->
<g id="edge7" class="edge">
<title>MailService&#45;&gt;ChallengeModule</title>
<path fill="none" stroke="black" d="M351,-122.03C351,-138.4 351,-160 351,-160 351,-160 495.8,-160 495.8,-160"/>
<polygon fill="black" stroke="black" points="495.8,-163.5 505.8,-160 495.8,-156.5 495.8,-163.5"/>
</g>
<!-- WorkerService -->
<g id="node9" class="node">
<title>WorkerService</title>
<ellipse fill="#fdb462" stroke="black" cx="205" cy="-104" rx="69.46" ry="18"/>
<text text-anchor="middle" x="205" y="-99.8" font-family="Times,serif" font-size="14.00">WorkerService</text>
</g>
<!-- WorkerService&#45;&gt;ChallengeModule -->
<g id="edge8" class="edge">
<title>WorkerService&#45;&gt;ChallengeModule</title>
<path fill="none" stroke="black" d="M205,-122.11C205,-141.34 205,-169 205,-169 205,-169 495.52,-169 495.52,-169"/>
<polygon fill="black" stroke="black" points="495.52,-172.5 505.52,-169 495.52,-165.5 495.52,-172.5"/>
</g>
</g>
</svg>
