<?xml version="1.0" encoding="UTF-8" standalone="no"?>
<!DOCTYPE svg PUBLIC "-//W3C//DTD SVG 1.1//EN"
 "http://www.w3.org/Graphics/SVG/1.1/DTD/svg11.dtd">
<!-- Generated by graphviz version 2.47.0 (20210316.0004)
 -->
<!-- Title: dependencies Pages: 1 -->
<svg width="504pt" height="211pt"
 viewBox="0.00 0.00 504.00 211.00" xmlns="http://www.w3.org/2000/svg" xmlns:xlink="http://www.w3.org/1999/xlink">
<g id="graph0" class="graph" transform="scale(1 1) rotate(0) translate(4 207)">
<title>dependencies</title>
<polygon fill="white" stroke="transparent" points="-4,4 -4,-207 500,-207 500,4 -4,4"/>
<text text-anchor="start" x="227.01" y="-42.4" font-family="Times-12" font-weight="bold" font-size="14.00">Legend</text>
<polygon fill="#ffffb3" stroke="transparent" points="14,-10 14,-30 34,-30 34,-10 14,-10"/>
<text text-anchor="start" x="37.63" y="-15.4" font-family="Times-12" font-size="14.00"> &#160;Declarations</text>
<polygon fill="#8dd3c7" stroke="transparent" points="127,-10 127,-30 147,-30 147,-10 127,-10"/>
<text text-anchor="start" x="150.73" y="-15.4" font-family="Times-12" font-size="14.00"> &#160;Module</text>
<polygon fill="#80b1d3" stroke="transparent" points="213,-10 213,-30 233,-30 233,-10 213,-10"/>
<text text-anchor="start" x="236.78" y="-15.4" font-family="Times-12" font-size="14.00"> &#160;Bootstrap</text>
<polygon fill="#fdb462" stroke="transparent" points="310,-10 310,-30 330,-30 330,-10 310,-10"/>
<text text-anchor="start" x="333.67" y="-15.4" font-family="Times-12" font-size="14.00"> &#160;Providers</text>
<polygon fill="#fb8072" stroke="transparent" points="406,-10 406,-30 426,-30 426,-10 406,-10"/>
<text text-anchor="start" x="429.73" y="-15.4" font-family="Times-12" font-size="14.00"> &#160;Exports</text>
<g id="clust1" class="cluster">
<title>cluster_Farmer</title>
<polygon fill="none" stroke="black" stroke-dasharray="1,5" points="103,-70 103,-195 393,-195 393,-70 103,-70"/>
</g>
<g id="clust6" class="cluster">
<title>cluster_Farmer_providers</title>
<polygon fill="none" stroke="black" points="111,-78 111,-130 385,-130 385,-78 111,-78"/>
</g>
<!-- DbService -->
<g id="node1" class="node">
<title>DbService</title>
<ellipse fill="#fdb462" stroke="black" cx="325" cy="-104" rx="51.58" ry="18"/>
<text text-anchor="middle" x="325" y="-99.8" font-family="Times,serif" font-size="14.00">DbService</text>
</g>
<!-- Farmer -->
<g id="node3" class="node">
<title>Farmer</title>
<polygon fill="#8dd3c7" stroke="black" points="284.43,-187 281.43,-191 260.43,-191 257.43,-187 227.57,-187 227.57,-151 284.43,-151 284.43,-187"/>
<text text-anchor="middle" x="256" y="-164.8" font-family="Times,serif" font-size="14.00">Farmer</text>
</g>
<!-- DbService&#45;&gt;Farmer -->
<g id="edge1" class="edge">
<title>DbService&#45;&gt;Farmer</title>
<path fill="none" stroke="black" d="M278.71,-112.23C278.71,-112.23 278.71,-140.76 278.71,-140.76"/>
<polygon fill="black" stroke="black" points="275.21,-140.76 278.71,-150.76 282.21,-140.76 275.21,-140.76"/>
</g>
<!-- FarmerService -->
<g id="node2" class="node">
<title>FarmerService</title>
<ellipse fill="#fdb462" stroke="black" cx="187" cy="-104" rx="67.75" ry="18"/>
<text text-anchor="middle" x="187" y="-99.8" font-family="Times,serif" font-size="14.00">FarmerService</text>
</g>
<!-- FarmerService&#45;&gt;Farmer -->
<g id="edge2" class="edge">
<title>FarmerService&#45;&gt;Farmer</title>
<path fill="none" stroke="black" d="M241.33,-115.03C241.33,-115.03 241.33,-140.78 241.33,-140.78"/>
<polygon fill="black" stroke="black" points="237.83,-140.78 241.33,-150.78 244.83,-140.78 237.83,-140.78"/>
</g>
</g>
</svg>
