<?xml version="1.0" encoding="UTF-8" standalone="no"?>
<!DOCTYPE svg PUBLIC "-//W3C//DTD SVG 1.1//EN"
 "http://www.w3.org/Graphics/SVG/1.1/DTD/svg11.dtd">
<!-- Generated by graphviz version 2.47.0 (20210316.0004)
 -->
<!-- Title: dependencies Pages: 1 -->
<svg width="1197pt" height="211pt"
 viewBox="0.00 0.00 1197.00 211.00" xmlns="http://www.w3.org/2000/svg" xmlns:xlink="http://www.w3.org/1999/xlink">
<g id="graph0" class="graph" transform="scale(1 1) rotate(0) translate(4 207)">
<title>dependencies</title>
<polygon fill="white" stroke="transparent" points="-4,4 -4,-207 1193,-207 1193,4 -4,4"/>
<text text-anchor="start" x="573.51" y="-42.4" font-family="Times-12" font-weight="bold" font-size="14.00">Legend</text>
<polygon fill="#ffffb3" stroke="transparent" points="360.5,-10 360.5,-30 380.5,-30 380.5,-10 360.5,-10"/>
<text text-anchor="start" x="384.13" y="-15.4" font-family="Times-12" font-size="14.00"> &#160;Declarations</text>
<polygon fill="#8dd3c7" stroke="transparent" points="473.5,-10 473.5,-30 493.5,-30 493.5,-10 473.5,-10"/>
<text text-anchor="start" x="497.23" y="-15.4" font-family="Times-12" font-size="14.00"> &#160;Module</text>
<polygon fill="#80b1d3" stroke="transparent" points="559.5,-10 559.5,-30 579.5,-30 579.5,-10 559.5,-10"/>
<text text-anchor="start" x="583.28" y="-15.4" font-family="Times-12" font-size="14.00"> &#160;Bootstrap</text>
<polygon fill="#fdb462" stroke="transparent" points="656.5,-10 656.5,-30 676.5,-30 676.5,-10 656.5,-10"/>
<text text-anchor="start" x="680.17" y="-15.4" font-family="Times-12" font-size="14.00"> &#160;Providers</text>
<polygon fill="#fb8072" stroke="transparent" points="752.5,-10 752.5,-30 772.5,-30 772.5,-10 752.5,-10"/>
<text text-anchor="start" x="776.23" y="-15.4" font-family="Times-12" font-size="14.00"> &#160;Exports</text>
<g id="clust1" class="cluster">
<title>cluster_ProjectModule</title>
<polygon fill="none" stroke="black" stroke-dasharray="1,5" points="8,-70 8,-195 1181,-195 1181,-70 8,-70"/>
</g>
<g id="clust6" class="cluster">
<title>cluster_ProjectModule_providers</title>
<polygon fill="none" stroke="black" points="16,-78 16,-130 1173,-130 1173,-78 16,-78"/>
</g>
<!-- AdminService -->
<g id="node1" class="node">
<title>AdminService</title>
<ellipse fill="#fdb462" stroke="black" cx="1098" cy="-104" rx="66.63" ry="18"/>
<text text-anchor="middle" x="1098" y="-99.8" font-family="Times,serif" font-size="14.00">AdminService</text>
</g>
<!-- ProjectModule -->
<g id="node9" class="node">
<title>ProjectModule</title>
<polygon fill="#8dd3c7" stroke="black" points="664.7,-187 661.7,-191 640.7,-191 637.7,-187 565.3,-187 565.3,-151 664.7,-151 664.7,-187"/>
<text text-anchor="middle" x="615" y="-164.8" font-family="Times,serif" font-size="14.00">ProjectModule</text>
</g>
<!-- AdminService&#45;&gt;ProjectModule -->
<g id="edge1" class="edge">
<title>AdminService&#45;&gt;ProjectModule</title>
<path fill="none" stroke="black" d="M1098,-122.29C1098,-144.21 1098,-178 1098,-178 1098,-178 674.87,-178 674.87,-178"/>
<polygon fill="black" stroke="black" points="674.87,-174.5 664.87,-178 674.87,-181.5 674.87,-174.5"/>
</g>
<!-- AuthService -->
<g id="node2" class="node">
<title>AuthService</title>
<ellipse fill="#fdb462" stroke="black" cx="954" cy="-104" rx="59.11" ry="18"/>
<text text-anchor="middle" x="954" y="-99.8" font-family="Times,serif" font-size="14.00">AuthService</text>
</g>
<!-- AuthService&#45;&gt;ProjectModule -->
<g id="edge2" class="edge">
<title>AuthService&#45;&gt;ProjectModule</title>
<path fill="none" stroke="black" d="M954,-122.11C954,-141.34 954,-169 954,-169 954,-169 674.66,-169 674.66,-169"/>
<polygon fill="black" stroke="black" points="674.66,-165.5 664.66,-169 674.66,-172.5 674.66,-165.5"/>
</g>
<!-- DbService -->
<g id="node3" class="node">
<title>DbService</title>
<ellipse fill="#fdb462" stroke="black" cx="825" cy="-104" rx="51.58" ry="18"/>
<text text-anchor="middle" x="825" y="-99.8" font-family="Times,serif" font-size="14.00">DbService</text>
</g>
<!-- DbService&#45;&gt;ProjectModule -->
<g id="edge3" class="edge">
<title>DbService&#45;&gt;ProjectModule</title>
<path fill="none" stroke="black" d="M825,-122.03C825,-138.4 825,-160 825,-160 825,-160 674.77,-160 674.77,-160"/>
<polygon fill="black" stroke="black" points="674.77,-156.5 664.77,-160 674.77,-163.5 674.77,-156.5"/>
</g>
<!-- FarmerService -->
<g id="node4" class="node">
<title>FarmerService</title>
<ellipse fill="#fdb462" stroke="black" cx="687" cy="-104" rx="67.75" ry="18"/>
<text text-anchor="middle" x="687" y="-99.8" font-family="Times,serif" font-size="14.00">FarmerService</text>
</g>
<!-- FarmerService&#45;&gt;ProjectModule -->
<g id="edge4" class="edge">
<title>FarmerService&#45;&gt;ProjectModule</title>
<path fill="none" stroke="black" d="M641.86,-117.47C641.86,-117.47 641.86,-140.86 641.86,-140.86"/>
<polygon fill="black" stroke="black" points="638.36,-140.86 641.86,-150.86 645.36,-140.86 638.36,-140.86"/>
</g>
<!-- MailService -->
<g id="node5" class="node">
<title>MailService</title>
<ellipse fill="#fdb462" stroke="black" cx="543" cy="-104" rx="58.46" ry="18"/>
<text text-anchor="middle" x="543" y="-99.8" font-family="Times,serif" font-size="14.00">MailService</text>
</g>
<!-- MailService&#45;&gt;ProjectModule -->
<g id="edge5" class="edge">
<title>MailService&#45;&gt;ProjectModule</title>
<path fill="none" stroke="black" d="M583.31,-117.15C583.31,-117.15 583.31,-140.69 583.31,-140.69"/>
<polygon fill="black" stroke="black" points="579.81,-140.69 583.31,-150.69 586.81,-140.69 579.81,-140.69"/>
</g>
<!-- ProfileService -->
<g id="node6" class="node">
<title>ProfileService</title>
<ellipse fill="#fdb462" stroke="black" cx="400" cy="-104" rx="66.05" ry="18"/>
<text text-anchor="middle" x="400" y="-99.8" font-family="Times,serif" font-size="14.00">ProfileService</text>
</g>
<!-- ProfileService&#45;&gt;ProjectModule -->
<g id="edge6" class="edge">
<title>ProfileService&#45;&gt;ProjectModule</title>
<path fill="none" stroke="black" d="M400,-122.03C400,-138.4 400,-160 400,-160 400,-160 555.13,-160 555.13,-160"/>
<polygon fill="black" stroke="black" points="555.13,-163.5 565.13,-160 555.13,-156.5 555.13,-163.5"/>
</g>
<!-- ProjectService -->
<g id="node7" class="node">
<title>ProjectService</title>
<ellipse fill="#fdb462" stroke="black" cx="248" cy="-104" rx="67.19" ry="18"/>
<text text-anchor="middle" x="248" y="-99.8" font-family="Times,serif" font-size="14.00">ProjectService</text>
</g>
<!-- ProjectService&#45;&gt;ProjectModule -->
<g id="edge7" class="edge">
<title>ProjectService&#45;&gt;ProjectModule</title>
<path fill="none" stroke="black" d="M248,-122.11C248,-141.34 248,-169 248,-169 248,-169 555.12,-169 555.12,-169"/>
<polygon fill="black" stroke="black" points="555.12,-172.5 565.12,-169 555.12,-165.5 555.12,-172.5"/>
</g>
<!-- WorkerService -->
<g id="node8" class="node">
<title>WorkerService</title>
<ellipse fill="#fdb462" stroke="black" cx="93" cy="-104" rx="69.46" ry="18"/>
<text text-anchor="middle" x="93" y="-99.8" font-family="Times,serif" font-size="14.00">WorkerService</text>
</g>
<!-- WorkerService&#45;&gt;ProjectModule -->
<g id="edge8" class="edge">
<title>WorkerService&#45;&gt;ProjectModule</title>
<path fill="none" stroke="black" d="M93,-122.29C93,-144.21 93,-178 93,-178 93,-178 554.95,-178 554.95,-178"/>
<polygon fill="black" stroke="black" points="554.95,-181.5 564.95,-178 554.95,-174.5 554.95,-181.5"/>
</g>
</g>
</svg>
